<svg width="31" height="30" viewBox="0 0 31 30" fill="none" xmlns="http://www.w3.org/2000/svg">
<circle opacity="0.2" cx="15.5" cy="15" r="15" fill="white"/>
<g clip-path="url(#clip0_714_1148)">
<path d="M9.89989 14.622C11.2051 14.622 12.2671 13.5601 12.2671 12.2549C12.2671 10.9496 11.2051 9.8877 9.89989 9.8877C8.59464 9.8877 7.53271 10.9496 7.53271 12.2549C7.53275 13.5601 8.59464 14.622 9.89989 14.622Z" fill="white"/>
<path d="M15.5 14.622C16.8052 14.622 17.8672 13.5601 17.8672 12.2549C17.8672 10.9496 16.8052 9.8877 15.5 9.8877C14.1947 9.8877 13.1328 10.9496 13.1328 12.2549C13.1328 13.5601 14.1947 14.622 15.5 14.622Z" fill="white"/>
<path d="M21.1001 14.622C22.4053 14.622 23.4673 13.5601 23.4673 12.2549C23.4673 10.9496 22.4053 9.8877 21.1001 9.8877C19.7948 9.8877 18.7329 10.9496 18.7329 12.2549C18.7329 13.5601 19.7948 14.622 21.1001 14.622Z" fill="white"/>
<path d="M18.3 16.5C16.9434 14.5336 14.0545 14.5367 12.7 16.5C10.8078 13.7574 6.5 15.1027 6.5 18.4257V19.5118C6.5 19.8431 6.76863 20.1118 7.10001 20.1118C7.40622 20.1118 23.5565 20.1118 23.9 20.1118C24.2314 20.1118 24.5 19.8432 24.5 19.5118V18.4257C24.5 15.1027 20.1917 13.758 18.3 16.5Z" fill="white"/>
</g>
<defs>
<clipPath id="clip0_714_1148">
<rect width="18" height="18" fill="white" transform="translate(6.5 6)"/>
</clipPath>
</defs>
</svg>
