<svg width="150" height="30" viewBox="0 0 150 30" fill="none" xmlns="http://www.w3.org/2000/svg">
<rect x="150" y="30" width="150" height="30" transform="rotate(-180 150 30)" fill="#EE4D2D"/>
<path d="M67.8146 9.23533C67.5 9.68356 67.5 11.0159 67.5 13.6806V14.9928C67.5 19.6912 71.0325 21.9712 73.2488 22.9394C73.85 23.202 74.1506 23.3333 75 23.3333C75.8494 23.3333 76.15 23.202 76.7512 22.9394C78.9675 21.9712 82.5 19.6912 82.5 14.9928V13.6806C82.5 11.0159 82.5 9.68356 82.1854 9.23533C81.8708 8.78711 80.6181 8.35829 78.1126 7.50065L77.6352 7.33726C76.3292 6.89019 75.6762 6.66666 75 6.66666C74.3238 6.66666 73.6708 6.89019 72.3648 7.33726L71.8874 7.50065C69.3819 8.35829 68.1292 8.78711 67.8146 9.23533Z" fill="white"/>
<path d="M77.5496 13.7496C77.7794 13.4921 77.7571 13.097 77.4996 12.8671C77.2421 12.6372 76.847 12.6596 76.6172 12.9171L74.1072 15.7283L73.3829 14.9171C73.153 14.6596 72.7579 14.6373 72.5004 14.8672C72.243 15.097 72.2206 15.4921 72.4505 15.7496L73.6409 17.0829C73.7595 17.2158 73.9291 17.2917 74.1072 17.2917C74.2852 17.2917 74.4548 17.2158 74.5734 17.0829L77.5496 13.7496Z" fill="#EE4D2D"/>
</svg>
