<svg width="60" height="60" viewBox="0 0 60 60" fill="none" xmlns="http://www.w3.org/2000/svg">
<circle cx="30" cy="30" r="25" fill="#815F42"/>
<path d="M19 31.4V27.9C19 21.9 23.9 17 30 17C36.1 17 41 21.9 41 27.9V31.4" stroke="white" stroke-width="1.3" stroke-miterlimit="10" stroke-linecap="round" stroke-linejoin="round"/>
<path d="M41 29V32.4C41 38.3 36.1 43 30 43V41H33" stroke="white" stroke-width="1.3" stroke-miterlimit="10" stroke-linecap="round" stroke-linejoin="round"/>
<path d="M23 36V28C20.8 28 19 29.8 19 32C19 34.2 20.8 36 23 36Z" stroke="white" stroke-width="1.3" stroke-miterlimit="10" stroke-linecap="round" stroke-linejoin="round"/>
<path d="M37 28V36C39.2 36 41 34.2 41 32C41 29.8 39.2 28 37 28Z" stroke="white" stroke-width="1.3" stroke-miterlimit="10" stroke-linecap="round" stroke-linejoin="round"/>
</svg>
