<?xml version="1.0" encoding="utf-8"?>
<!-- Generator: Adobe Illustrator 27.5.0, SVG Export Plug-In . SVG Version: 6.00 Build 0)  -->
<svg version="1.1" id="Layer_1" xmlns="http://www.w3.org/2000/svg" xmlns:xlink="http://www.w3.org/1999/xlink" x="0px" y="0px"
	 viewBox="0 0 800 800" style="enable-background:new 0 0 800 800;" xml:space="preserve">
<style type="text/css">
	.st0{fill-rule:evenodd;clip-rule:evenodd;fill:#815F42;}
</style>
<g id="style_x3D_fill">
	<g id="email">
		<path id="Subtract" class="st0" d="M271,161.4c-41.6,0-79.3,10.4-106.6,35.8c-27.6,25.6-41.6,63.7-41.6,112.5v180.5
			c0,48.8,14.1,86.9,41.6,112.5c27.3,25.4,65,35.8,106.6,35.8H529c41.6,0,79.3-10.4,106.6-35.8c27.6-25.6,41.6-63.7,41.6-112.5
			V309.7c0-48.8-14.1-86.9-41.6-112.5c-27.3-25.4-65-35.8-106.6-35.8L271,161.4L271,161.4z M586.5,306.1c8.4-6.5,10-18.6,3.5-27.2
			c-6.5-8.4-18.6-10-27.2-3.5L419.8,386.1c-11.6,9-27.8,9-39.5,0L237.2,275.6c-8.4-6.5-20.6-5-27.2,3.5c-6.5,8.4-5,20.6,3.5,27.2
			l143.1,110.6c25.5,19.7,61.2,19.7,86.7,0L586.5,306.1z"/>
	</g>
</g>
</svg>
