<svg width="393" height="52" viewBox="0 0 393 52" fill="none" xmlns="http://www.w3.org/2000/svg">
<rect width="393" height="52" rx="4" fill="white"/>
<path d="M171.828 25.4063C171.828 21.055 170.099 16.882 167.022 13.8053C163.946 10.7285 159.773 9.00001 155.421 9.00001C151.29 8.99621 147.31 10.5511 144.275 13.354C141.24 16.157 139.374 20.0018 139.051 24.1203C138.727 28.2388 139.969 32.328 142.528 35.5708C145.088 38.8135 148.776 40.9715 152.857 41.6133V30.1478H148.695V25.4063H152.86V21.7923C152.86 17.6813 155.309 15.4078 159.057 15.4078C160.852 15.4078 162.729 15.729 162.729 15.729V19.7673H160.66C158.621 19.7673 157.988 21.0328 157.988 22.329V25.4063H162.537L161.81 30.1478H157.985V41.6133C161.844 41.0023 165.359 39.0343 167.896 36.0633C170.434 33.0923 171.828 29.3133 171.828 25.4063Z" fill="#1877F2"/>
<path d="M161.808 30.1478L162.535 25.4063H157.985V22.329C157.985 21.0328 158.618 19.7673 160.657 19.7673H162.727V15.7265C162.727 15.7265 160.85 15.4055 159.054 15.4055C155.304 15.4055 152.857 17.679 152.857 21.79V25.4063H148.695V30.1478H152.86V41.6133C154.559 41.8808 156.289 41.8808 157.988 41.6133V30.1478H161.808Z" fill="white"/>
<path d="M184.031 20.031C183.151 20.031 182.887 20.418 182.887 21.28V22.7048H185.244L185.016 25.0265H182.887V32.0445H180.055V25.0265H178.156V22.7223H180.055V21.3328C180.055 18.9758 181.005 17.7445 183.626 17.7445C184.171 17.7445 184.734 17.7798 185.279 17.85V20.031" fill="#1877F2"/>
<path d="M185.438 27.0842C185.438 24.481 186.669 22.511 189.272 22.511C190.679 22.511 191.541 23.2322 191.963 24.147V22.7222H194.672V32.062H191.946V30.6547C191.559 31.552 190.662 32.2555 189.254 32.2555C186.669 32.2555 185.42 30.303 185.42 27.6822M188.269 27.7175C188.269 29.107 188.78 30.0392 190.099 30.0392C191.26 30.0392 191.84 29.195 191.84 27.8582V26.9085C191.84 25.5715 191.242 24.7272 190.099 24.7272C188.78 24.7272 188.269 25.642 188.269 27.049V27.7175Z" fill="#1877F2"/>
<path d="M200.547 22.511C201.637 22.511 202.693 22.7397 203.255 23.1442L202.622 25.1495C202.042 24.868 201.391 24.7272 200.74 24.7272C199.21 24.7272 198.542 25.6067 198.542 27.1195V27.6647C198.542 29.1775 199.21 30.0567 200.74 30.0567C201.391 30.0567 202.042 29.8985 202.622 29.617L203.255 31.6222C202.693 32.0092 201.655 32.2555 200.547 32.2555C197.222 32.2555 195.727 30.479 195.727 27.612V27.1722C195.727 24.3052 197.222 22.511 200.547 22.511Z" fill="#1877F2"/>
<path d="M203.625 27.735V26.9085C203.625 24.2525 205.137 22.511 208.216 22.511C211.118 22.511 212.402 24.27 212.402 26.8732V28.3682H206.457C206.509 29.6522 207.09 30.2152 208.655 30.2152C209.675 30.2152 210.696 30.0217 211.663 29.6522L212.173 31.587C211.434 31.974 209.904 32.273 208.55 32.273C204.962 32.2555 203.625 30.479 203.625 27.735ZM206.457 26.5037H209.869V26.2752C209.869 25.255 209.464 24.446 208.216 24.446C206.949 24.446 206.457 25.255 206.457 26.5037Z" fill="#1877F2"/>
<path d="M222.885 27.6823C222.885 30.2855 221.636 32.2555 219.033 32.2555C217.626 32.2555 216.641 31.552 216.254 30.655V32.062H213.58V18.026L216.412 17.7798V24.0238C216.817 23.197 217.731 22.5288 219.05 22.5288C221.636 22.5288 222.902 24.481 222.902 27.102M220.053 27.0315C220.053 25.7123 219.543 24.7273 218.189 24.7273C217.028 24.7273 216.412 25.554 216.412 26.8908V27.8758C216.412 29.2125 217.045 30.0393 218.189 30.0393C219.543 30.0393 220.053 29.0543 220.053 27.735V27.0315Z" fill="#1877F2"/>
<path d="M223.817 27.612V27.137C223.817 24.446 225.347 22.511 228.461 22.511C231.574 22.511 233.104 24.446 233.104 27.137V27.612C233.104 30.303 231.574 32.238 228.461 32.238C225.347 32.238 223.817 30.3207 223.817 27.612ZM230.29 26.9435C230.29 25.7122 229.78 24.7272 228.461 24.7272C227.141 24.7272 226.631 25.7122 226.631 26.9435V27.823C226.631 29.0542 227.141 30.0392 228.461 30.0392C229.78 30.0392 230.29 29.0542 230.29 27.823V26.9435Z" fill="#1877F2"/>
<path d="M234.072 27.612V27.137C234.072 24.446 235.602 22.511 238.715 22.511C241.828 22.511 243.359 24.446 243.359 27.137V27.612C243.359 30.303 241.828 32.238 238.715 32.238C235.602 32.238 234.072 30.3207 234.072 27.612ZM240.544 26.9435C240.544 25.7122 240.034 24.7272 238.715 24.7272C237.396 24.7272 236.886 25.7122 236.886 26.9435V27.823C236.886 29.0542 237.396 30.0392 238.715 30.0392C240.034 30.0392 240.544 29.0542 240.544 27.823V26.9435Z" fill="#1877F2"/>
<path d="M247.246 27.1722L250.042 22.7047H253.033L250.113 27.3305L253.156 32.062H250.148L247.246 27.4887V32.062H244.432V18.026L247.246 17.762" fill="#1877F2"/>
</svg>
