<svg width="640" height="300" viewBox="0 0 640 300" fill="none" xmlns="http://www.w3.org/2000/svg">
<rect x="20" y="48.5" width="600" height="206.25" rx="10" fill="white"/>
<path d="M224.875 151.625C224.875 134.22 217.961 117.528 205.654 105.221C193.347 92.9141 176.655 86 159.25 86C142.725 85.9848 126.803 92.2043 114.664 103.416C102.524 114.628 95.0617 130.007 93.7665 146.481C92.4713 162.955 97.4388 179.312 107.677 192.283C117.915 205.254 132.67 213.886 148.994 216.453V170.591H132.344V151.625H149.003V137.169C149.003 120.725 158.8 111.631 173.791 111.631C180.972 111.631 188.481 112.916 188.481 112.916V129.069H180.203C172.047 129.069 169.516 134.131 169.516 139.316V151.625H187.713L184.806 170.591H169.506V216.453C184.942 214.009 199 206.137 209.149 194.253C219.299 182.369 224.876 167.253 224.875 151.625Z" fill="#1877F2"/>
<path d="M184.797 170.591L187.703 151.625H169.506V139.316C169.506 134.131 172.038 129.069 180.194 129.069H188.472V112.906C188.472 112.906 180.963 111.622 173.781 111.622C158.781 111.622 148.994 120.716 148.994 137.16V151.625H132.344V170.591H149.003V216.453C155.799 217.523 162.72 217.523 169.516 216.453V170.591H184.797Z" fill="white"/>
<g clip-path="url(#clip0_806_121)">
<path d="M273.687 130.124C270.169 130.124 269.113 131.672 269.113 135.12V140.819H278.541L277.627 150.106H269.113V178.178H257.786V150.106H250.188V140.889H257.786V135.331C257.786 125.903 261.585 120.978 272.068 120.978C274.249 120.978 276.501 121.119 278.682 121.4V130.124" fill="#1877F2"/>
<path d="M279.315 158.337C279.315 147.924 284.24 140.044 294.653 140.044C300.281 140.044 303.729 142.929 305.417 146.588V140.889H316.252V178.248H305.347V172.619C303.799 176.208 300.211 179.022 294.582 179.022C284.24 179.022 279.245 171.212 279.245 160.729M290.642 160.87C290.642 166.428 292.683 170.157 297.959 170.157C302.603 170.157 304.925 166.78 304.925 161.433V157.634C304.925 152.286 302.533 148.909 297.959 148.909C292.683 148.909 290.642 152.568 290.642 158.196V160.87Z" fill="#1877F2"/>
<path d="M339.751 140.044C344.113 140.044 348.335 140.959 350.586 142.577L348.053 150.598C345.732 149.472 343.128 148.909 340.525 148.909C334.404 148.909 331.731 152.427 331.731 158.478V160.659C331.731 166.71 334.404 170.227 340.525 170.227C343.128 170.227 345.732 169.594 348.053 168.468L350.586 176.489C348.335 178.037 344.184 179.022 339.751 179.022C326.454 179.022 320.474 171.916 320.474 160.448V158.689C320.474 147.221 326.454 140.044 339.751 140.044Z" fill="#1877F2"/>
<path d="M352.063 160.94V157.634C352.063 147.01 358.114 140.044 370.427 140.044C382.035 140.044 387.171 147.08 387.171 157.493V163.473H363.391C363.602 168.609 365.924 170.861 372.185 170.861C376.266 170.861 380.347 170.087 384.216 168.609L386.257 176.348C383.302 177.896 377.181 179.092 371.763 179.092C357.411 179.022 352.063 171.916 352.063 160.94ZM363.391 156.015H377.04V155.101C377.04 151.02 375.422 147.784 370.427 147.784C365.361 147.784 363.391 151.02 363.391 156.015Z" fill="#1877F2"/>
<path d="M429.104 160.729C429.104 171.142 424.109 179.022 413.696 179.022C408.067 179.022 404.127 176.208 402.579 172.62V178.248H391.885V122.104L403.213 121.119V146.095C404.831 142.788 408.489 140.115 413.766 140.115C424.109 140.115 429.174 147.924 429.174 158.408M417.776 158.126C417.776 152.849 415.736 148.909 410.319 148.909C405.675 148.909 403.213 152.216 403.213 157.563V161.503C403.213 166.85 405.745 170.157 410.319 170.157C415.736 170.157 417.776 166.217 417.776 160.94V158.126Z" fill="#1877F2"/>
<path d="M432.833 160.448V158.548C432.833 147.784 438.954 140.044 451.407 140.044C463.86 140.044 469.981 147.784 469.981 158.548V160.448C469.981 171.212 463.86 178.952 451.407 178.952C438.954 178.952 432.833 171.283 432.833 160.448ZM458.724 157.774C458.724 152.849 456.684 148.909 451.407 148.909C446.13 148.909 444.09 152.849 444.09 157.774V161.292C444.09 166.217 446.13 170.157 451.407 170.157C456.684 170.157 458.724 166.217 458.724 161.292V157.774Z" fill="#1877F2"/>
<path d="M473.851 160.448V158.548C473.851 147.784 479.972 140.044 492.425 140.044C504.878 140.044 510.999 147.784 510.999 158.548V160.448C510.999 171.212 504.878 178.952 492.425 178.952C479.972 178.952 473.851 171.283 473.851 160.448ZM499.742 157.774C499.742 152.849 497.701 148.909 492.425 148.909C487.148 148.909 485.108 152.849 485.108 157.774V161.292C485.108 166.217 487.148 170.157 492.425 170.157C497.701 170.157 499.742 166.217 499.742 161.292V157.774Z" fill="#1877F2"/>
<path d="M526.548 158.689L537.734 140.819H549.695L538.016 159.322L550.187 178.248H538.156L526.548 159.955V178.248H515.291V122.104L526.548 121.048" fill="#1877F2"/>
</g>
<defs>
<clipPath id="clip0_806_121">
<rect width="300" height="300" fill="white" transform="translate(250.188)"/>
</clipPath>
</defs>
</svg>
