<?xml version="1.0" encoding="utf-8"?>
<!-- Generator: Adobe Illustrator 27.5.0, SVG Export Plug-In . SVG Version: 6.00 Build 0)  -->
<svg version="1.1" id="Layer_1" xmlns="http://www.w3.org/2000/svg" xmlns:xlink="http://www.w3.org/1999/xlink" x="0px" y="0px"
	 viewBox="0 0 800 800" style="enable-background:new 0 0 800 800;" xml:space="preserve">
<style type="text/css">
	.st0{fill:#815F42;}
</style>
<path class="st0" d="M718.4,398c-0.7-60.7-18.9-119.9-52.1-170.6c-33.3-50.7-80.4-91-135.6-115.8S414,78.1,354,86.8
	c-60.1,8.8-116.3,34.5-162.3,74.3c-45.9,39.6-79.5,91.7-96.8,149.9s-17.7,120-1.1,178.4s49.7,110.7,95,150.9s101.4,66.6,161.3,76.2
	V490.8h-79.6V398h79.6v-70.5c-1.8-16.4-0.1-33,5.3-48.6c5.3-15.6,13.9-29.9,25.3-41.8c11.3-11.9,25.2-21.1,40.6-27.2
	c15.4-6,31.9-8.5,48.2-7.4c23.9,0.4,47.6,2.5,71.3,6.3v79.6h-39.8c-6.8-0.8-13.9-0.1-20.4,2c-6.6,2.1-12.5,5.9-17.6,10.6
	c-5,4.8-8.8,10.6-11.2,17.2c-2.4,6.4-3.3,13.5-2.6,20.3v60.1h88.4l-14.3,92.8h-73.7v222.9c75.2-11.9,143.6-50.4,193-108.4
	C692,547.9,718.8,474.1,718.4,398z"/>
</svg>
