<svg width="30" height="30" viewBox="0 0 30 30" fill="none" xmlns="http://www.w3.org/2000/svg">
<g clip-path="url(#clip0_3_39)">
<path d="M28.5682 12.6698C28.3783 12.5784 28.3673 12.4767 28.4205 12.3032C28.6127 11.6717 28.4291 11.12 28.0008 10.6557C27.8312 10.4721 27.8218 10.3533 27.9617 10.161C28.397 9.56076 28.4775 8.87769 28.3236 8.17663C28.0578 6.97304 26.9433 6.09613 25.6803 6.19695C25.431 6.21805 25.3208 6.14146 25.2505 5.89527C25.1818 5.62335 25.0418 5.37468 24.8449 5.17492C24.648 4.97517 24.4014 4.83155 24.1305 4.75889C23.8593 4.68073 23.7796 4.55569 23.8023 4.28527C23.8609 3.57483 23.6194 2.95662 23.1387 2.44002C22.2524 1.49277 20.923 1.3349 19.8359 2.04299C19.6342 2.17429 19.5233 2.16022 19.3411 1.99531C18.8652 1.56311 18.304 1.37866 17.6632 1.59046C17.4834 1.64986 17.3966 1.59515 17.3216 1.43415C16.9293 0.59789 16.2978 0.0781555 15.3513 0H14.5315C14.3204 0.07034 14.0938 0.0734662 13.889 0.17585C13.3557 0.43307 12.9289 0.868442 12.6823 1.4068C12.594 1.59828 12.4971 1.64127 12.2986 1.58109C11.6686 1.38804 11.1192 1.57718 10.6518 2.00313C10.4814 2.15944 10.3736 2.17976 10.1829 2.04533C9.58187 1.62173 8.9027 1.53185 8.19695 1.67097C7.00899 1.90543 6.10082 3.0637 6.19617 4.26964C6.21805 4.54005 6.15787 4.68386 5.86401 4.76514C5.59721 4.83393 5.35379 4.97316 5.15924 5.16826C4.96469 5.36337 4.82615 5.60717 4.75811 5.87417C4.67995 6.1485 4.55334 6.2204 4.28527 6.19773C3.57483 6.13912 2.95662 6.38062 2.44002 6.86127C1.48964 7.75147 1.33255 9.07229 2.04142 10.1602C2.17272 10.3626 2.15866 10.4728 1.99531 10.6565C1.56233 11.134 1.38023 11.6944 1.59047 12.3337C1.64283 12.49 1.61704 12.5776 1.45682 12.6542C0.659633 13.0332 0.135991 13.6327 0 14.5299V15.4678C0.137554 16.3345 0.625244 16.9433 1.4068 17.3083C1.59828 17.3966 1.6358 17.5053 1.57483 17.6991C1.39039 18.2931 1.56311 18.8159 1.93435 19.2849C2.17819 19.592 2.18679 19.5897 1.98046 19.914C1.23877 21.0785 1.61157 22.8324 2.99648 23.5287C3.42386 23.7481 3.90424 23.8432 4.38296 23.803C4.56272 23.789 4.66901 23.8281 4.72216 24.025C4.89957 24.6823 5.32786 25.1036 5.98437 25.281C6.16491 25.3294 6.20711 25.424 6.1993 25.5936C6.17558 25.8562 6.18873 26.1209 6.23837 26.3798C6.33022 26.789 6.52063 27.1694 6.79305 27.4882C7.06547 27.807 7.41164 28.0543 7.80146 28.2088C8.19127 28.3633 8.61293 28.4201 9.02974 28.3745C9.44655 28.3288 9.8459 28.182 10.193 27.9469C10.372 27.8288 10.4728 27.8281 10.6385 27.9812C11.12 28.4259 11.685 28.6182 12.3369 28.4048C12.4932 28.3533 12.5807 28.3783 12.6573 28.5385C13.0363 29.3365 13.6358 29.8593 14.533 29.9961H15.3529C15.4404 29.932 15.542 29.9766 15.6366 29.9578C16.4181 29.8054 16.9449 29.3326 17.2833 28.6377C17.3865 28.4244 17.4889 28.3501 17.7311 28.4228C18.3509 28.6104 18.8941 28.4158 19.349 27.9937C19.5295 27.8265 19.6413 27.8062 19.839 27.9531C20.4353 28.3955 21.12 28.4721 21.8218 28.3212C23.0152 28.0641 23.9086 26.9449 23.8046 25.678C23.7843 25.4302 23.8617 25.3177 24.1079 25.2466C24.3842 25.1749 24.6363 25.0305 24.8378 24.8283C25.0393 24.6261 25.1829 24.3735 25.2536 24.0969C25.324 23.846 25.4396 23.778 25.685 23.7984C26.032 23.8306 26.3817 23.7861 26.7095 23.6681C27.0373 23.55 27.3352 23.3613 27.5819 23.1153C28.5088 22.2306 28.6612 20.9058 27.9586 19.8327C27.8265 19.6303 27.8421 19.5201 28.0055 19.3388C28.4377 18.8613 28.6245 18.3009 28.4103 17.6616C28.3494 17.4803 28.4041 17.3943 28.5666 17.3208C29.3662 16.9527 29.864 16.3478 30.0031 15.4662V14.5901C29.8945 13.6725 29.3732 13.0598 28.5682 12.6698ZM25.8593 7.14107C26.0691 7.14229 26.2766 7.18507 26.4698 7.26694C26.663 7.34882 26.8381 7.46816 26.9849 7.61808C27.1317 7.768 27.2473 7.94553 27.3251 8.1404C27.4029 8.33527 27.4413 8.54362 27.4381 8.75342C27.4368 9.17794 27.2682 9.58484 26.9689 9.88583C26.6695 10.1868 26.2635 10.3576 25.839 10.3611C24.9644 10.3665 24.222 9.62251 24.2173 8.73544C24.2134 7.86323 24.9598 7.13794 25.8593 7.14107ZM27.535 11.8367C27.5313 12.0381 27.4493 12.2303 27.3063 12.3723C27.1633 12.5142 26.9706 12.5949 26.7691 12.5971C26.6685 12.5975 26.5688 12.5777 26.4761 12.5387C26.3833 12.4998 26.2994 12.4426 26.2292 12.3706C26.159 12.2985 26.104 12.2131 26.0676 12.1193C26.0311 12.0256 26.0139 11.9255 26.0169 11.8249C26.02 11.7244 26.0432 11.6255 26.0853 11.5341C26.1274 11.4428 26.1874 11.3608 26.2618 11.2931C26.3362 11.2254 26.4235 11.1734 26.5184 11.1402C26.6134 11.107 26.714 11.0932 26.8144 11.0996C27.0059 11.1072 27.1873 11.1878 27.3213 11.3248C27.4553 11.4619 27.5317 11.645 27.535 11.8367ZM23.6084 5.6272C23.7082 5.62565 23.8074 5.6439 23.9001 5.6809C23.9928 5.7179 24.0772 5.77292 24.1485 5.84277C24.2198 5.91261 24.2765 5.99591 24.3154 6.08782C24.3544 6.17974 24.3746 6.27846 24.3751 6.37827C24.3704 6.57478 24.2901 6.7619 24.1509 6.90075C24.0118 7.0396 23.8245 7.11951 23.628 7.12388C23.4333 7.12066 23.2475 7.04171 23.11 6.90377C22.9725 6.76582 22.8942 6.57975 22.8917 6.38502C22.8891 6.19029 22.9626 6.00224 23.0964 5.86075C23.2302 5.71927 23.4139 5.63549 23.6084 5.6272ZM21.2818 2.55959C21.4915 2.56153 21.6987 2.60486 21.8916 2.6871C22.0846 2.76933 22.2593 2.88885 22.4059 3.03881C22.5526 3.18876 22.6681 3.36618 22.746 3.56091C22.8238 3.75563 22.8625 3.96381 22.8597 4.17351C22.8594 4.38564 22.8172 4.59562 22.7356 4.79143C22.654 4.98724 22.5346 5.16502 22.3842 5.31458C22.2337 5.46415 22.0552 5.58256 21.859 5.66302C21.6627 5.74349 21.4525 5.78443 21.2403 5.78351C20.8114 5.7755 20.403 5.59867 20.1036 5.29141C19.8042 4.98414 19.6381 4.57122 19.6413 4.14224C19.6443 3.93038 19.6892 3.72122 19.7735 3.5268C19.8577 3.33238 19.9796 3.15656 20.1321 3.00944C20.2846 2.86233 20.4646 2.74685 20.662 2.66964C20.8593 2.59244 21.0699 2.55503 21.2818 2.55959ZM18.1649 2.46424C18.3619 2.47242 18.5486 2.55477 18.6874 2.69479C18.8263 2.8348 18.9071 3.02214 18.9136 3.21923C18.9132 3.36828 18.8684 3.51384 18.7852 3.63745C18.7019 3.76106 18.5837 3.85715 18.4458 3.91354C18.3078 3.96993 18.1562 3.98409 18.0101 3.95421C17.8641 3.92433 17.7302 3.85176 17.6255 3.74571C17.5208 3.63965 17.4499 3.50489 17.4218 3.35849C17.3938 3.2121 17.4098 3.06068 17.4679 2.92341C17.526 2.78615 17.6236 2.66924 17.7482 2.58749C17.8729 2.50575 18.019 2.46285 18.168 2.46424H18.1649ZM14.9941 0.87925C15.4229 0.883362 15.8328 1.05632 16.1349 1.36063C16.4371 1.66494 16.607 2.07607 16.6081 2.50488C16.6007 2.92537 16.4289 3.32625 16.1296 3.62163C15.8302 3.91701 15.4271 4.08339 15.0065 4.08513C14.586 4.08687 14.1814 3.92382 13.8797 3.63093C13.5779 3.33803 13.4028 2.93859 13.392 2.51817C13.3902 2.08931 13.5573 1.67699 13.8571 1.37032C14.1569 1.06365 14.5653 0.887253 14.9941 0.87925ZM11.8538 2.46346C12.055 2.46879 12.2459 2.55346 12.3848 2.69901C12.5238 2.84455 12.5995 3.03914 12.5955 3.24033C12.5909 3.38875 12.5425 3.53249 12.4564 3.6535C12.3704 3.7745 12.2505 3.86737 12.1118 3.92045C11.9731 3.97352 11.8218 3.98443 11.677 3.9518C11.5321 3.91918 11.4001 3.84447 11.2976 3.73707C11.195 3.62966 11.1265 3.49435 11.1006 3.34813C11.0747 3.20191 11.0926 3.0513 11.1521 2.91522C11.2115 2.77914 11.3098 2.66366 11.4347 2.58329C11.5595 2.50291 11.7054 2.46122 11.8538 2.46346ZM8.74091 2.56428C9.05934 2.56353 9.3708 2.65749 9.63568 2.83422C9.90057 3.01095 10.1069 3.26246 10.2285 3.55678C10.35 3.85109 10.3813 4.17491 10.3183 4.48705C10.2554 4.79919 10.101 5.08555 9.87483 5.30972C9.64868 5.53389 9.36097 5.68573 9.04828 5.74595C8.7356 5.80616 8.41207 5.77202 8.11884 5.64787C7.82561 5.52372 7.57593 5.31517 7.40154 5.04874C7.22715 4.78231 7.13594 4.47003 7.13951 4.15162C7.13929 3.94192 7.18067 3.73426 7.26124 3.54066C7.34182 3.34706 7.45999 3.17136 7.60893 3.02373C7.75786 2.87611 7.9346 2.75949 8.1289 2.68062C8.32321 2.60176 8.53122 2.56222 8.74091 2.56428ZM6.38062 5.6272C6.57736 5.6276 6.76598 5.70567 6.90546 5.84442C7.04494 5.98317 7.124 6.17138 7.12544 6.36811C7.1273 6.51712 7.08474 6.66331 7.00319 6.78804C6.92165 6.91278 6.8048 7.0104 6.66756 7.06846C6.53031 7.12653 6.37888 7.14241 6.23258 7.11408C6.08627 7.08576 5.95172 7.0145 5.84607 6.9094C5.74041 6.8043 5.66845 6.67013 5.63935 6.52397C5.61026 6.37782 5.62534 6.22631 5.68268 6.08876C5.74003 5.95121 5.83703 5.83385 5.96133 5.75165C6.08563 5.66945 6.2316 5.62612 6.38062 5.6272ZM0.87925 15.0059C0.877239 14.6862 0.970267 14.3732 1.14652 14.1066C1.32277 13.84 1.57429 13.6317 1.86914 13.5084C2.16399 13.385 2.48885 13.352 2.80248 13.4136C3.1161 13.4753 3.40433 13.6287 3.63056 13.8545C3.85678 14.0803 4.0108 14.3682 4.07305 14.6817C4.13529 14.9952 4.10295 15.3202 3.98014 15.6152C3.85733 15.9103 3.64959 16.1623 3.3833 16.339C3.11701 16.5158 2.80418 16.6094 2.48456 16.608C2.06011 16.6056 1.65368 16.4361 1.35325 16.1363C1.05281 15.8364 0.88253 15.4303 0.87925 15.0059ZM2.46503 11.839C2.4672 11.6427 2.5455 11.4549 2.68343 11.3153C2.82136 11.1756 3.00813 11.0949 3.20438 11.0903C3.4009 11.0955 3.58842 11.1738 3.73022 11.31C3.87203 11.4462 3.95792 11.6303 3.97108 11.8265C3.98202 12.2282 3.62251 12.5869 3.2075 12.5901C3.01091 12.586 2.82357 12.5058 2.68504 12.3662C2.54651 12.2267 2.46762 12.0387 2.46503 11.8421V11.839ZM3.24658 17.4076C3.43855 17.4136 3.62077 17.4936 3.75519 17.6308C3.88961 17.7679 3.96583 17.9518 3.96796 18.1438C3.96467 18.3459 3.88201 18.5387 3.73783 18.6804C3.59364 18.8221 3.3995 18.9014 3.19734 18.9011C3.09927 18.8979 3.0028 18.8754 2.91344 18.8349C2.82407 18.7944 2.74356 18.7366 2.6765 18.665C2.60944 18.5934 2.55715 18.5092 2.52261 18.4174C2.48807 18.3255 2.47195 18.2278 2.47519 18.1297C2.47842 18.0317 2.50094 17.9352 2.54145 17.8458C2.58197 17.7565 2.63969 17.676 2.71132 17.6089C2.78295 17.5418 2.86709 17.4895 2.95893 17.455C3.05077 17.4205 3.14851 17.4043 3.24658 17.4076ZM4.1485 22.8558C3.72212 22.8558 3.3132 22.6864 3.01171 22.3849C2.71021 22.0834 2.54084 21.6745 2.54084 21.2481C2.54084 20.8218 2.71021 20.4128 3.01171 20.1114C3.3132 19.8099 3.72212 19.6405 4.1485 19.6405C4.35962 19.6405 4.56867 19.6821 4.76372 19.7629C4.95877 19.8437 5.136 19.9621 5.28528 20.1114C5.43457 20.2606 5.55299 20.4379 5.63378 20.6329C5.71457 20.828 5.75616 21.037 5.75616 21.2481C5.75616 21.4593 5.71457 21.6683 5.63378 21.8634C5.55299 22.0584 5.43457 22.2356 5.28528 22.3849C5.136 22.5342 4.95877 22.6526 4.76372 22.7334C4.56867 22.8142 4.35962 22.8558 4.1485 22.8558ZM6.38374 24.3712C6.23342 24.3764 6.08499 24.3365 5.95753 24.2566C5.83007 24.1767 5.72939 24.0606 5.66845 23.9231C5.6075 23.7856 5.58906 23.633 5.6155 23.4849C5.64194 23.3368 5.71205 23.2 5.81683 23.0921C5.9216 22.9842 6.05625 22.9101 6.20347 22.8793C6.35069 22.8485 6.50377 22.8624 6.64302 22.9192C6.78228 22.9761 6.90135 23.0733 6.98495 23.1983C7.06855 23.3233 7.11284 23.4705 7.11215 23.6209C7.11412 23.7181 7.09688 23.8148 7.06143 23.9053C7.02598 23.9958 6.973 24.0784 6.90555 24.1484C6.83809 24.2184 6.75748 24.2744 6.66834 24.3132C6.5792 24.3519 6.48328 24.3727 6.38609 24.3744L6.38374 24.3712ZM8.75342 27.4404C8.53906 27.4448 8.32598 27.4063 8.12668 27.3273C7.92738 27.2482 7.74588 27.1301 7.59283 26.98C7.43979 26.8298 7.31827 26.6506 7.23542 26.4529C7.15257 26.2551 7.11006 26.0428 7.11037 25.8284C7.11068 25.614 7.15382 25.4018 7.23724 25.2043C7.32067 25.0068 7.4427 24.8279 7.59619 24.6782C7.74967 24.5285 7.93151 24.411 8.13104 24.3325C8.33057 24.254 8.54376 24.2162 8.75811 24.2212C9.17886 24.231 9.57903 24.4053 9.8729 24.7066C10.1668 25.0078 10.331 25.4122 10.3304 25.8331C10.3298 26.254 10.1644 26.6579 9.86962 26.9583C9.57487 27.2587 9.1742 27.4318 8.75342 27.4404ZM11.864 27.5342C11.6625 27.5367 11.468 27.4597 11.3229 27.3198C11.1778 27.18 11.0936 26.9885 11.0887 26.787C11.0926 26.5912 11.1727 26.4046 11.3118 26.2668C11.451 26.129 11.6383 26.0508 11.8342 26.0488C12.03 26.0468 12.2189 26.1211 12.3609 26.256C12.5029 26.3908 12.5868 26.5757 12.5948 26.7714C12.5938 26.9683 12.5171 27.1573 12.3806 27.2993C12.2442 27.4413 12.0584 27.5254 11.8617 27.5342H11.864ZM14.9988 29.1207C14.6802 29.1201 14.3689 29.0251 14.1042 28.8477C13.8396 28.6703 13.6334 28.4185 13.5117 28.124C13.3901 27.8295 13.3584 27.5056 13.4207 27.1931C13.4831 26.8806 13.6366 26.5936 13.8619 26.3683C14.0872 26.143 14.3742 25.9895 14.6866 25.9272C14.9991 25.8649 15.323 25.8965 15.6175 26.0182C15.912 26.1398 16.1639 26.346 16.3413 26.6107C16.5187 26.8754 16.6137 27.1866 16.6143 27.5053C16.6142 27.7176 16.5723 27.9278 16.4909 28.1239C16.4095 28.32 16.2903 28.4982 16.1401 28.6482C15.9898 28.7982 15.8115 28.9172 15.6153 28.9982C15.4191 29.0793 15.2088 29.121 14.9965 29.1207H14.9988ZM18.1704 27.5358C17.9689 27.5358 17.7755 27.4562 17.6324 27.3144C17.4892 27.1725 17.4079 26.9799 17.406 26.7784C17.4091 26.5818 17.4887 26.3942 17.6279 26.2554C17.7671 26.1166 17.955 26.0376 18.1516 26.0352C18.3506 26.0327 18.5424 26.1093 18.6849 26.2483C18.8274 26.3872 18.9088 26.5771 18.9113 26.7761C18.9138 26.9751 18.8371 27.1669 18.6982 27.3094C18.5592 27.4518 18.3694 27.5333 18.1704 27.5358ZM22.1641 27.163C21.8982 27.3385 21.5867 27.432 21.2681 27.432C20.9495 27.432 20.6379 27.3385 20.372 27.163C20.1036 26.9919 19.8936 26.7434 19.7696 26.4503C19.6457 26.1572 19.6137 25.8334 19.678 25.5217C19.6999 25.417 19.7351 25.3146 19.7562 25.2091C19.7984 24.9551 19.678 24.7401 19.4435 24.6893C19.2091 24.6385 18.9988 24.7292 18.9347 24.9644C18.8628 25.2278 18.7597 25.2685 18.4955 25.1989C17.9109 25.0504 17.3959 25.2341 16.9785 25.6631C16.8667 25.7788 16.8175 25.7929 16.6886 25.678C15.6882 24.7839 14.315 24.7847 13.3193 25.678C13.195 25.7898 13.1465 25.7874 13.0309 25.6678C12.5713 25.1934 12.0148 25.0379 11.374 25.2216C11.2255 25.2646 11.1747 25.2474 11.1293 25.095C10.7347 23.7835 9.34818 23.0832 8.15944 23.4154C8.03204 23.4506 8.00313 23.4154 7.9703 23.2864C7.81399 22.6206 7.3982 22.1923 6.72763 22.036C6.58226 22.0016 6.57132 21.9578 6.59633 21.8218C6.85893 20.4588 6.21727 19.3357 4.91208 18.8753C4.77374 18.8269 4.72528 18.7917 4.77374 18.6354C4.96835 17.9984 4.8136 17.4365 4.34232 16.9769C4.20242 16.841 4.23212 16.7894 4.34232 16.6643C5.21454 15.6921 5.2075 14.297 4.32669 13.3146C4.22118 13.1966 4.20086 13.1481 4.32669 13.0254C4.80188 12.5682 4.96522 12.0094 4.77374 11.3716C4.72059 11.1942 4.77374 11.1606 4.93005 11.1176C5.19267 11.0411 5.43848 10.9157 5.65455 10.7479C5.87886 10.576 5.932 10.3408 5.79914 10.1336C5.66628 9.92653 5.39742 9.86557 5.15827 10.0289C4.70262 10.3415 4.21493 10.44 3.6866 10.2782C2.92067 10.0438 2.46581 9.288 2.58539 8.46893C2.69558 7.71708 3.38179 7.14029 4.17038 7.14029C4.54973 7.13653 4.91797 7.26829 5.20882 7.51186C5.49967 7.75543 5.69404 8.09481 5.75694 8.46893C5.77179 8.54709 5.78195 8.62524 5.80383 8.69793C5.87026 8.92458 6.0297 9.04416 6.26104 9.02227C6.50801 8.99883 6.64166 8.83939 6.65729 8.59242C6.67448 8.32435 6.91364 7.94138 7.15045 7.81086C7.35899 7.70218 7.54023 7.54771 7.68059 7.35903C7.82094 7.17035 7.91678 6.95236 7.96092 6.72138C7.9914 6.57913 8.02735 6.55647 8.16882 6.58304C9.5381 6.84721 10.6698 6.20711 11.12 4.90895C11.1755 4.75264 11.2224 4.72216 11.3834 4.76905C12.0211 4.95506 12.5791 4.79406 13.0379 4.31887C13.1458 4.20633 13.1942 4.20789 13.3075 4.30871C14.3361 5.2161 15.6639 5.21376 16.6979 4.30246C16.8152 4.1993 16.8613 4.21024 16.966 4.31809C17.424 4.79406 17.982 4.95584 18.6198 4.77374C18.7862 4.72606 18.8269 4.75811 18.8816 4.9152C19.3208 6.19148 20.5033 6.86909 21.8085 6.59086C21.9883 6.55256 22.0063 6.60102 22.043 6.75342C22.211 7.39117 22.6229 7.80383 23.2653 7.9578C23.4295 7.99765 23.4326 8.04689 23.4029 8.19226C23.134 9.51075 23.8007 10.6753 25.0809 11.1192C25.2372 11.1723 25.2747 11.2114 25.2255 11.3787C25.0371 12.0164 25.2013 12.5744 25.6725 13.0348C25.7773 13.1379 25.796 13.1841 25.6897 13.3044C24.78 14.3361 24.78 15.6725 25.6897 16.6948C25.7874 16.8042 25.7991 16.8511 25.6835 16.9629C25.2005 17.4271 25.0301 17.9914 25.2325 18.6409C25.2833 18.8042 25.2224 18.8316 25.0887 18.8753C24.0586 19.2333 23.4818 19.9617 23.3466 21.0426C23.3187 21.3048 23.3404 21.57 23.4107 21.8241C23.4451 21.9578 23.4263 22.0008 23.2794 22.0352C22.6221 22.1915 22.204 22.6041 22.0399 23.2567C22.0023 23.4084 21.975 23.4443 21.8163 23.4029C21.4367 23.3026 21.0373 23.3047 20.6589 23.4091C20.3462 23.4935 20.2102 23.6905 20.2681 23.9562C20.3228 24.1985 20.5393 24.3283 20.8386 24.2587C21.0501 24.2053 21.2701 24.195 21.4856 24.2286C21.7011 24.2622 21.9076 24.339 22.0927 24.4543C22.2779 24.5696 22.4378 24.7211 22.563 24.8996C22.6882 25.0782 22.7761 25.2802 22.8214 25.4936C22.8842 25.8058 22.8554 26.1295 22.7384 26.4258C22.6213 26.722 22.4211 26.978 22.1618 27.163H22.1641ZM23.6288 24.3751C23.4312 24.3758 23.2412 24.2987 23.1 24.1605C22.9587 24.0223 22.8775 23.8341 22.8738 23.6366C22.8703 23.5359 22.8871 23.4355 22.9231 23.3414C22.9592 23.2473 23.0138 23.1614 23.0837 23.0888C23.1536 23.0163 23.2374 22.9585 23.3301 22.9189C23.4228 22.8794 23.5225 22.8589 23.6232 22.8586C23.724 22.8583 23.8238 22.8783 23.9167 22.9174C24.0096 22.9565 24.0936 23.0138 24.1639 23.086C24.2342 23.1582 24.2893 23.2438 24.3258 23.3377C24.3624 23.4316 24.3797 23.5319 24.3767 23.6327C24.3755 23.8306 24.2958 24.0199 24.1551 24.1591C24.0144 24.2983 23.8243 24.376 23.6264 24.3751H23.6288ZM25.8382 22.8597C25.5193 22.863 25.2066 22.7714 24.9397 22.5968C24.6728 22.4221 24.4638 22.1722 24.3392 21.8786C24.2145 21.585 24.1798 21.261 24.2395 20.9477C24.2991 20.6344 24.4505 20.3459 24.6743 20.1186C24.8981 19.8914 25.1843 19.7357 25.4967 19.6714C25.8091 19.607 26.1336 19.6368 26.429 19.757C26.7244 19.8772 26.9775 20.0825 27.1561 20.3467C27.3348 20.6109 27.431 20.9222 27.4326 21.2411C27.437 21.453 27.3988 21.6637 27.3204 21.8606C27.242 22.0575 27.1249 22.2367 26.9761 22.3876C26.8272 22.5385 26.6496 22.658 26.4538 22.7391C26.2579 22.8202 26.0478 22.8612 25.8359 22.8597H25.8382ZM26.7839 18.9136C26.6836 18.9159 26.584 18.8979 26.4908 18.8609C26.3976 18.8239 26.3128 18.7685 26.2414 18.698C26.17 18.6276 26.1135 18.5435 26.0752 18.4509C26.037 18.3582 26.0177 18.2587 26.0186 18.1584C26.0195 18.0582 26.0405 17.9591 26.0804 17.8671C26.1203 17.7751 26.1783 17.6921 26.2509 17.6229C26.3236 17.5537 26.4093 17.4999 26.5032 17.4645C26.597 17.4291 26.697 17.413 26.7972 17.417C26.9943 17.4192 27.1826 17.4994 27.3208 17.64C27.459 17.7805 27.536 17.9701 27.535 18.1673C27.5285 18.3639 27.4471 18.5507 27.3075 18.6895C27.1679 18.8282 26.9806 18.9084 26.7839 18.9136ZM27.4936 16.6073C27.2825 16.6081 27.0734 16.5673 26.8782 16.4873C26.6829 16.4073 26.5053 16.2897 26.3555 16.141C26.053 15.8409 25.8821 15.4328 25.8804 15.0066C25.8788 14.5805 26.0465 14.1711 26.3466 13.8686C26.6468 13.5661 27.0549 13.3952 27.481 13.3935C27.9096 13.3908 28.3221 13.5568 28.6292 13.8557C28.9364 14.1547 29.1135 14.5625 29.1223 14.991C29.1262 15.857 28.3759 16.6026 27.4936 16.6065V16.6073Z" fill="#695F56"/>
</g>
<defs>
<clipPath id="clip0_3_39">
<rect width="30" height="30" fill="white"/>
</clipPath>
</defs>
</svg>
