<svg width="30" height="30" viewBox="0 0 30 30" fill="none" xmlns="http://www.w3.org/2000/svg">
<circle opacity="0.2" cx="15" cy="15" r="15" fill="white"/>
<g clip-path="url(#clip0_801_108)">
<path d="M15.5082 15.5001C15.3227 15.3075 15.0866 15.2147 14.8018 15.2147C14.5171 15.2147 14.281 15.3075 14.0954 15.5001C13.9099 15.6857 13.8172 15.9283 13.8172 16.2208C13.8172 16.5133 13.9099 16.7559 14.0954 16.9486C14.281 17.1341 14.5164 17.2269 14.8018 17.2269C15.0872 17.2269 15.3227 17.1341 15.5082 16.9486C15.7009 16.7559 15.7936 16.5133 15.7936 16.2208C15.7936 15.9283 15.6993 15.6866 15.5082 15.5001ZM15.5082 15.5001C15.3227 15.3075 15.0866 15.2147 14.8018 15.2147C14.5171 15.2147 14.281 15.3075 14.0954 15.5001C13.9099 15.6857 13.8172 15.9283 13.8172 16.2208C13.8172 16.5133 13.9099 16.7559 14.0954 16.9486C14.281 17.1341 14.5164 17.2269 14.8018 17.2269C15.0872 17.2269 15.3227 17.1341 15.5082 16.9486C15.7009 16.7559 15.7936 16.5133 15.7936 16.2208C15.7936 15.9283 15.6993 15.6866 15.5082 15.5001ZM24.6462 10.3638C24.5158 10.2704 21.373 8.34579 20.9125 8.09736C20.582 7.9086 20.3323 8.08017 20.3219 8.08633C20.2016 8.15509 16.884 10.234 16.3524 10.5188C15.5848 10.943 14.5806 10.967 13.7773 10.6008C13.2337 10.3878 9.77248 8.12103 9.6781 8.074C9.48902 7.96762 9.27659 7.97962 9.08653 8.08633L5.33049 10.3641C5.22924 10.4312 5.1461 10.5222 5.08845 10.6292C5.03081 10.7361 5.00042 10.8556 5 10.9771V17.8823C5.01165 18.0051 5.0547 18.1228 5.12503 18.224C5.19535 18.3253 5.29057 18.4068 5.40152 18.4606C5.69666 18.6027 13.5421 23.5123 14.5923 24.1263C14.717 24.197 14.8583 24.2332 15.0016 24.2312C15.1449 24.2291 15.2851 24.1889 15.4077 24.1146C16.4828 23.5243 24.3033 18.6143 24.5985 18.4493C24.709 18.3979 24.8041 18.3186 24.8745 18.2191C24.945 18.1197 24.9882 18.0036 25 17.8823V10.9894C25.0017 10.8631 24.9698 10.7387 24.9076 10.6288C24.8454 10.5189 24.7552 10.4274 24.6462 10.3638ZM12.6386 18.0046H9.74848V13.0099H10.7331V17.064H12.6386V18.0046ZM16.7125 18.0046H15.792V17.583C15.5137 17.9326 15.1284 18.1038 14.629 18.1038C14.1509 18.1038 13.7442 17.9255 13.4017 17.5616C13.0664 17.1977 12.8951 16.7482 12.8951 16.2201C12.8951 15.6921 13.0664 15.2498 13.4017 14.8859C13.7442 14.522 14.1509 14.3364 14.629 14.3364C15.1284 14.3364 15.5137 14.5077 15.792 14.8573V14.4357H16.7125V18.0046ZM20.2515 18.0046H17.4331V17.391L18.9386 15.3004H17.5045V14.437H20.1802V15.0506L18.6675 17.1412H20.2515V18.0046ZM14.8002 15.2154C14.5148 15.2154 14.2793 15.3081 14.0938 15.5008C13.9083 15.6863 13.8156 15.9289 13.8156 16.2214C13.8156 16.514 13.9083 16.7566 14.0938 16.9492C14.2793 17.1348 14.5148 17.2275 14.8002 17.2275C15.0856 17.2275 15.3216 17.1345 15.5082 16.9486C15.7009 16.7559 15.7936 16.5133 15.7936 16.2208C15.7936 15.9283 15.7009 15.6857 15.5082 15.5001C15.3211 15.3075 15.0866 15.2147 14.8002 15.2147V15.2154Z" fill="white"/>
</g>
<defs>
<clipPath id="clip0_801_108">
<rect width="20" height="16.2313" fill="white" transform="translate(5 8)"/>
</clipPath>
</defs>
</svg>
