<svg width="60" height="60" viewBox="0 0 60 60" fill="none" xmlns="http://www.w3.org/2000/svg">
<circle cx="30" cy="30" r="25" fill="url(#paint0_linear_742_267)"/>
<path d="M28.3253 22.7924L29.0859 24.1552C29.7722 25.3851 29.4967 26.9984 28.4157 28.0794C28.4157 28.0794 27.1045 29.3908 29.4818 31.7682C31.8584 34.1447 33.1705 32.8343 33.1705 32.8343C34.2516 31.7533 35.8649 31.4778 37.0948 32.1641L38.4576 32.9247C40.3148 33.9611 40.534 36.5655 38.9017 38.1979C37.9209 39.1787 36.7192 39.942 35.3909 39.9923C33.1548 40.0771 29.3574 39.5112 25.5481 35.7019C21.7388 31.8926 21.1729 28.0952 21.2577 25.8591C21.308 24.5308 22.0713 23.3292 23.0521 22.3483C24.6845 20.716 27.2889 20.9353 28.3253 22.7924Z" fill="white"/>
<defs>
<linearGradient id="paint0_linear_742_267" x1="30" y1="5" x2="30" y2="55" gradientUnits="userSpaceOnUse">
<stop stop-color="#64FF82"/>
<stop offset="1" stop-color="#02B721"/>
</linearGradient>
</defs>
</svg>
