<svg width="213" height="33" viewBox="0 0 213 33" fill="none" xmlns="http://www.w3.org/2000/svg">
<path d="M39.8797 24V14H41.5464V15.8333C41.9019 15.2444 42.3741 14.7778 42.963 14.4333C43.5519 14.0778 44.2519 13.9 45.063 13.9L45.513 15.7C45.3019 15.6333 45.0575 15.6 44.7797 15.6C43.8464 15.6 43.0964 15.9 42.5297 16.5C41.963 17.0889 41.6797 17.9333 41.6797 19.0333V24H39.8797ZM55.9964 24.2C55.2964 24.2 54.6408 24.0278 54.0297 23.6833C53.4186 23.3278 52.9241 22.8167 52.5464 22.15C52.1686 21.4833 51.9797 20.6833 51.9797 19.75V14H53.7797V19.5C53.7797 20.2889 54.013 20.9889 54.4797 21.6C54.9575 22.2 55.6241 22.5 56.4797 22.5C57.1797 22.5 57.8019 22.25 58.3464 21.75C58.9019 21.2389 59.1797 20.5056 59.1797 19.55V14H60.9797V24H59.313V22.3833C58.9464 22.9722 58.4686 23.4222 57.8797 23.7333C57.3019 24.0444 56.6741 24.2 55.9964 24.2ZM73.263 24.1333C72.3519 24.1333 71.5186 23.9056 70.763 23.45C70.0075 22.9833 69.4019 22.3611 68.9464 21.5833C68.5019 20.8056 68.2797 19.9444 68.2797 19C68.2797 18.0556 68.5019 17.1944 68.9464 16.4167C69.4019 15.6389 70.0075 15.0222 70.763 14.5667C71.5186 14.1 72.3519 13.8667 73.263 13.8667C73.9186 13.8667 74.5352 13.9833 75.113 14.2167C75.6908 14.45 76.2019 14.7722 76.6464 15.1833V8H78.4464V24H76.7797V22.6833C76.3352 23.1278 75.8075 23.4833 75.1964 23.75C74.5964 24.0056 73.9519 24.1333 73.263 24.1333ZM73.4964 22.5C74.1297 22.5 74.7019 22.3444 75.213 22.0333C75.7352 21.7111 76.1464 21.2889 76.4464 20.7667C76.7575 20.2333 76.913 19.6444 76.913 19C76.913 18.3556 76.7575 17.7722 76.4464 17.25C76.1464 16.7167 75.7352 16.2944 75.213 15.9833C74.7019 15.6611 74.1297 15.5 73.4964 15.5C72.863 15.5 72.2852 15.6611 71.763 15.9833C71.2519 16.2944 70.8408 16.7167 70.5297 17.25C70.2297 17.7722 70.0797 18.3556 70.0797 19C70.0797 19.6444 70.2297 20.2333 70.5297 20.7667C70.8408 21.2889 71.2519 21.7111 71.763 22.0333C72.2852 22.3444 72.863 22.5 73.4964 22.5ZM86.4359 24V14H88.1026V15.8333C88.4582 15.2444 88.9304 14.7778 89.5193 14.4333C90.1082 14.0778 90.8082 13.9 91.6193 13.9L92.0693 15.7C91.8582 15.6333 91.6137 15.6 91.3359 15.6C90.4026 15.6 89.6526 15.9 89.0859 16.5C88.5193 17.0889 88.2359 17.9333 88.2359 19.0333V24H86.4359ZM102.691 24.1333C101.78 24.1333 100.947 23.9056 100.191 23.45C99.4356 22.9833 98.83 22.3611 98.3745 21.5833C97.93 20.8056 97.7078 19.9444 97.7078 19C97.7078 18.0556 97.93 17.1944 98.3745 16.4167C98.83 15.6389 99.4356 15.0222 100.191 14.5667C100.947 14.1 101.78 13.8667 102.691 13.8667C103.38 13.8667 104.024 13.9944 104.624 14.25C105.236 14.5056 105.763 14.8611 106.208 15.3167V14H107.874V24H106.208V22.6833C105.763 23.1278 105.236 23.4833 104.624 23.75C104.024 24.0056 103.38 24.1333 102.691 24.1333ZM102.924 22.5C103.558 22.5 104.13 22.3444 104.641 22.0333C105.163 21.7111 105.574 21.2889 105.874 20.7667C106.186 20.2333 106.341 19.6444 106.341 19C106.341 18.3556 106.186 17.7722 105.874 17.25C105.574 16.7167 105.163 16.2944 104.641 15.9833C104.13 15.6611 103.558 15.5 102.924 15.5C102.291 15.5 101.713 15.6611 101.191 15.9833C100.68 16.2944 100.269 16.7167 99.9578 17.25C99.6578 17.7722 99.5078 18.3556 99.5078 19C99.5078 19.6444 99.6578 20.2333 99.9578 20.7667C100.269 21.2889 100.68 21.7111 101.191 22.0333C101.713 22.3444 102.291 22.5 102.924 22.5ZM122.381 24L117.864 18.5L121.581 14H123.664L120.014 18.3667L124.664 24H122.381ZM115.864 24V8H117.664V24H115.864ZM133.747 24.2C133.236 24.2 132.686 24.1056 132.097 23.9167C131.52 23.7167 131.02 23.3889 130.597 22.9333L131.097 20.9667C131.409 21.4889 131.809 21.9056 132.297 22.2167C132.786 22.5167 133.309 22.6667 133.864 22.6667C134.397 22.6667 134.797 22.5389 135.064 22.2833C135.331 22.0167 135.464 21.6944 135.464 21.3167C135.464 20.8833 135.32 20.5667 135.031 20.3667C134.753 20.1667 134.503 20.0278 134.281 19.95L132.931 19.4333C132.686 19.3333 132.392 19.1889 132.047 19C131.703 18.8 131.403 18.5167 131.147 18.15C130.892 17.7833 130.764 17.3056 130.764 16.7167C130.764 16.1833 130.892 15.6944 131.147 15.25C131.403 14.8056 131.764 14.4556 132.231 14.2C132.697 13.9333 133.247 13.8 133.881 13.8C134.381 13.8 134.903 13.8889 135.447 14.0667C135.992 14.2444 136.453 14.5444 136.831 14.9667L136.331 16.9333C136.064 16.4444 135.703 16.0556 135.247 15.7667C134.792 15.4778 134.32 15.3333 133.831 15.3333C133.375 15.3333 133.014 15.4611 132.747 15.7167C132.492 15.9722 132.364 16.2667 132.364 16.6C132.364 16.8667 132.453 17.1056 132.631 17.3167C132.809 17.5278 133.075 17.7 133.431 17.8333L134.781 18.35C135.025 18.4389 135.325 18.5833 135.681 18.7833C136.047 18.9833 136.37 19.2722 136.647 19.65C136.925 20.0278 137.064 20.5389 137.064 21.1833C137.064 22.0833 136.747 22.8111 136.114 23.3667C135.492 23.9222 134.703 24.2 133.747 24.2ZM144.472 24V8H146.272V15.4167C146.65 14.8944 147.116 14.4944 147.672 14.2167C148.227 13.9389 148.822 13.8 149.455 13.8C150.166 13.8 150.822 13.9778 151.422 14.3333C152.033 14.6778 152.527 15.1833 152.905 15.85C153.283 16.5056 153.472 17.3056 153.472 18.25V24H151.672V18.5C151.672 17.7111 151.433 17.0167 150.955 16.4167C150.489 15.8056 149.827 15.5 148.972 15.5C148.272 15.5 147.644 15.7556 147.089 16.2667C146.544 16.7667 146.272 17.4944 146.272 18.45V24H144.472ZM165.555 24.1333C164.644 24.1333 163.811 23.9056 163.055 23.45C162.3 22.9833 161.694 22.3611 161.239 21.5833C160.794 20.8056 160.572 19.9444 160.572 19C160.572 18.0556 160.794 17.1944 161.239 16.4167C161.694 15.6389 162.3 15.0222 163.055 14.5667C163.811 14.1 164.644 13.8667 165.555 13.8667C166.244 13.8667 166.889 13.9944 167.489 14.25C168.1 14.5056 168.627 14.8611 169.072 15.3167V14H170.739V24H169.072V22.6833C168.627 23.1278 168.1 23.4833 167.489 23.75C166.889 24.0056 166.244 24.1333 165.555 24.1333ZM165.789 22.5C166.422 22.5 166.994 22.3444 167.505 22.0333C168.027 21.7111 168.439 21.2889 168.739 20.7667C169.05 20.2333 169.205 19.6444 169.205 19C169.205 18.3556 169.05 17.7722 168.739 17.25C168.439 16.7167 168.027 16.2944 167.505 15.9833C166.994 15.6611 166.422 15.5 165.789 15.5C165.155 15.5 164.577 15.6611 164.055 15.9833C163.544 16.2944 163.133 16.7167 162.822 17.25C162.522 17.7722 162.372 18.3556 162.372 19C162.372 19.6444 162.522 20.2333 162.822 20.7667C163.133 21.2889 163.544 21.7111 164.055 22.0333C164.577 22.3444 165.155 22.5 165.789 22.5ZM179.378 24.2C179.011 24.2 178.7 24.0778 178.445 23.8333C178.2 23.5778 178.078 23.2667 178.078 22.9C178.078 22.5333 178.2 22.2278 178.445 21.9833C178.7 21.7278 179.011 21.6 179.378 21.6C179.756 21.6 180.067 21.7278 180.311 21.9833C180.556 22.2278 180.678 22.5333 180.678 22.9C180.678 23.2667 180.556 23.5778 180.311 23.8333C180.067 24.0778 179.756 24.2 179.378 24.2ZM190.67 24.5L185.62 14H187.67L189.704 18.3333C189.893 18.7222 190.07 19.1056 190.237 19.4833C190.404 19.8611 190.565 20.3222 190.72 20.8667C190.887 20.3222 191.054 19.8611 191.22 19.4833C191.398 19.0944 191.576 18.7111 191.754 18.3333L193.804 14H195.72L190.67 24.5ZM202.32 24V14H203.987V15.6167C204.354 15.0278 204.826 14.5778 205.404 14.2667C205.993 13.9556 206.626 13.8 207.304 13.8C208.015 13.8 208.67 13.9778 209.27 14.3333C209.881 14.6778 210.376 15.1833 210.754 15.85C211.131 16.5056 211.32 17.3056 211.32 18.25V24H209.52V18.5C209.52 17.7111 209.281 17.0167 208.804 16.4167C208.337 15.8056 207.676 15.5 206.82 15.5C206.12 15.5 205.493 15.7556 204.937 16.2667C204.393 16.7667 204.12 17.4944 204.12 18.45V24H202.32Z" fill="#695F56"/>
<g clip-path="url(#clip0_3_41)">
<path d="M28.5682 15.6698C28.3783 15.5784 28.3673 15.4767 28.4205 15.3032C28.6127 14.6717 28.4291 14.12 28.0008 13.6557C27.8312 13.4721 27.8218 13.3533 27.9617 13.161C28.397 12.5608 28.4775 11.8777 28.3236 11.1766C28.0578 9.97304 26.9433 9.09613 25.6803 9.19695C25.431 9.21805 25.3208 9.14146 25.2505 8.89527C25.1818 8.62335 25.0418 8.37468 24.8449 8.17492C24.648 7.97517 24.4014 7.83155 24.1305 7.75889C23.8593 7.68073 23.7796 7.55569 23.8023 7.28527C23.8609 6.57483 23.6194 5.95662 23.1387 5.44002C22.2524 4.49277 20.923 4.3349 19.8359 5.04299C19.6342 5.17429 19.5233 5.16022 19.3412 4.99531C18.8652 4.56311 18.304 4.37866 17.6632 4.59046C17.4834 4.64986 17.3966 4.59515 17.3216 4.43415C16.9293 3.59789 16.2978 3.07816 15.3513 3H14.5315C14.3204 3.07034 14.0938 3.07347 13.889 3.17585C13.3557 3.43307 12.9289 3.86844 12.6823 4.4068C12.594 4.59828 12.4971 4.64127 12.2986 4.58109C11.6686 4.38804 11.1192 4.57718 10.6518 5.00313C10.4814 5.15944 10.3736 5.17976 10.1829 5.04533C9.58187 4.62173 8.9027 4.53185 8.19695 4.67097C7.00899 4.90543 6.10082 6.0637 6.19617 7.26964C6.21805 7.54005 6.15787 7.68386 5.86401 7.76514C5.59721 7.83393 5.35379 7.97316 5.15924 8.16826C4.96469 8.36337 4.82615 8.60717 4.75811 8.87417C4.67995 9.1485 4.55334 9.2204 4.28527 9.19773C3.57483 9.13912 2.95662 9.38062 2.44002 9.86127C1.48964 10.7515 1.33255 12.0723 2.04142 13.1602C2.17272 13.3626 2.15866 13.4728 1.99531 13.6565C1.56233 14.134 1.38023 14.6944 1.59047 15.3337C1.64283 15.49 1.61704 15.5776 1.45682 15.6542C0.659633 16.0332 0.135991 16.6327 0 17.5299V18.4678C0.137554 19.3345 0.625244 19.9433 1.4068 20.3083C1.59828 20.3966 1.6358 20.5053 1.57483 20.6991C1.39039 21.2931 1.56311 21.8159 1.93435 22.2849C2.17819 22.592 2.18679 22.5897 1.98046 22.914C1.23877 24.0785 1.61157 25.8324 2.99648 26.5287C3.42386 26.7481 3.90424 26.8432 4.38296 26.803C4.56272 26.789 4.66901 26.8281 4.72216 27.025C4.89957 27.6823 5.32786 28.1036 5.98437 28.281C6.16491 28.3294 6.20711 28.424 6.1993 28.5936C6.17558 28.8562 6.18873 29.1209 6.23837 29.3798C6.33022 29.789 6.52063 30.1694 6.79305 30.4882C7.06547 30.807 7.41164 31.0543 7.80146 31.2088C8.19127 31.3633 8.61293 31.4201 9.02974 31.3745C9.44656 31.3288 9.8459 31.182 10.193 30.9469C10.372 30.8288 10.4728 30.8281 10.6385 30.9812C11.12 31.4259 11.685 31.6182 12.3369 31.4048C12.4932 31.3533 12.5807 31.3783 12.6573 31.5385C13.0363 32.3365 13.6358 32.8593 14.533 32.9961H15.3529C15.4404 32.932 15.542 32.9766 15.6366 32.9578C16.4181 32.8054 16.9449 32.3326 17.2833 31.6377C17.3865 31.4244 17.4889 31.3501 17.7311 31.4228C18.3509 31.6104 18.8941 31.4158 19.349 30.9937C19.5295 30.8265 19.6413 30.8062 19.839 30.9531C20.4353 31.3955 21.12 31.4721 21.8218 31.3212C23.0152 31.0641 23.9086 29.9449 23.8046 28.678C23.7843 28.4302 23.8617 28.3177 24.1079 28.2466C24.3842 28.1749 24.6363 28.0305 24.8378 27.8283C25.0393 27.6261 25.1829 27.3735 25.2536 27.0969C25.324 26.846 25.4396 26.778 25.685 26.7984C26.032 26.8306 26.3817 26.7861 26.7095 26.6681C27.0373 26.55 27.3352 26.3613 27.5819 26.1153C28.5088 25.2306 28.6612 23.9058 27.9586 22.8327C27.8265 22.6303 27.8421 22.5201 28.0055 22.3388C28.4377 21.8613 28.6245 21.3009 28.4103 20.6616C28.3494 20.4803 28.4041 20.3943 28.5666 20.3208C29.3662 19.9527 29.864 19.3478 30.0031 18.4662V17.5901C29.8945 16.6725 29.3732 16.0598 28.5682 15.6698ZM25.8593 10.1411C26.0691 10.1423 26.2766 10.1851 26.4698 10.2669C26.663 10.3488 26.8381 10.4682 26.9849 10.6181C27.1317 10.768 27.2473 10.9455 27.3251 11.1404C27.4029 11.3353 27.4413 11.5436 27.4381 11.7534C27.4368 12.1779 27.2682 12.5848 26.9689 12.8858C26.6695 13.1868 26.2635 13.3576 25.839 13.3611C24.9644 13.3665 24.222 12.6225 24.2173 11.7354C24.2134 10.8632 24.9598 10.1379 25.8593 10.1411ZM27.535 14.8367C27.5313 15.0381 27.4493 15.2303 27.3063 15.3723C27.1633 15.5142 26.9706 15.5949 26.7691 15.5971C26.6685 15.5975 26.5688 15.5777 26.4761 15.5387C26.3833 15.4998 26.2994 15.4426 26.2292 15.3706C26.159 15.2985 26.104 15.2131 26.0676 15.1193C26.0311 15.0256 26.0139 14.9255 26.0169 14.8249C26.02 14.7244 26.0432 14.6255 26.0853 14.5341C26.1274 14.4428 26.1874 14.3608 26.2618 14.2931C26.3362 14.2254 26.4235 14.1734 26.5184 14.1402C26.6134 14.107 26.714 14.0932 26.8144 14.0996C27.0059 14.1072 27.1873 14.1878 27.3213 14.3248C27.4553 14.4619 27.5317 14.645 27.535 14.8367ZM23.6084 8.6272C23.7082 8.62565 23.8074 8.6439 23.9001 8.6809C23.9928 8.7179 24.0772 8.77292 24.1485 8.84277C24.2198 8.91261 24.2765 8.99591 24.3154 9.08782C24.3544 9.17974 24.3746 9.27846 24.3751 9.37827C24.3704 9.57478 24.2901 9.7619 24.1509 9.90075C24.0118 10.0396 23.8245 10.1195 23.628 10.1239C23.4333 10.1207 23.2475 10.0417 23.11 9.90377C22.9725 9.76582 22.8942 9.57975 22.8917 9.38502C22.8891 9.19029 22.9626 9.00224 23.0964 8.86075C23.2302 8.71927 23.4139 8.63549 23.6084 8.6272ZM21.2817 5.55959C21.4915 5.56153 21.6987 5.60486 21.8916 5.6871C22.0846 5.76933 22.2593 5.88885 22.4059 6.03881C22.5526 6.18876 22.6681 6.36618 22.746 6.56091C22.8238 6.75563 22.8625 6.96381 22.8597 7.17351C22.8594 7.38564 22.8172 7.59562 22.7356 7.79143C22.654 7.98724 22.5346 8.16502 22.3842 8.31458C22.2337 8.46415 22.0552 8.58256 21.859 8.66302C21.6627 8.74349 21.4525 8.78443 21.2403 8.78351C20.8114 8.7755 20.403 8.59867 20.1036 8.29141C19.8042 7.98414 19.6381 7.57122 19.6413 7.14224C19.6443 6.93038 19.6892 6.72122 19.7735 6.5268C19.8577 6.33238 19.9796 6.15655 20.1321 6.00944C20.2846 5.86233 20.4646 5.74685 20.662 5.66964C20.8593 5.59244 21.0699 5.55503 21.2817 5.55959ZM18.1649 5.46424C18.3619 5.47242 18.5486 5.55477 18.6874 5.69479C18.8263 5.8348 18.9071 6.02214 18.9136 6.21923C18.9132 6.36828 18.8684 6.51384 18.7852 6.63745C18.7019 6.76106 18.5837 6.85715 18.4458 6.91354C18.3078 6.96993 18.1562 6.98409 18.0101 6.95421C17.8641 6.92433 17.7302 6.85176 17.6255 6.74571C17.5208 6.63965 17.4499 6.50489 17.4218 6.35849C17.3938 6.2121 17.4098 6.06068 17.4679 5.92341C17.526 5.78615 17.6236 5.66924 17.7482 5.58749C17.8729 5.50575 18.019 5.46285 18.168 5.46424H18.1649ZM14.9941 3.87925C15.4229 3.88336 15.8328 4.05632 16.1349 4.36063C16.4371 4.66494 16.607 5.07607 16.6081 5.50488C16.6007 5.92537 16.4289 6.32625 16.1296 6.62163C15.8302 6.91701 15.4271 7.08339 15.0065 7.08513C14.586 7.08687 14.1814 6.92382 13.8797 6.63093C13.5779 6.33803 13.4028 5.93859 13.392 5.51817C13.3902 5.08931 13.5573 4.67699 13.8571 4.37032C14.1569 4.06365 14.5653 3.88725 14.9941 3.87925ZM11.8538 5.46346C12.055 5.46879 12.2459 5.55346 12.3848 5.69901C12.5238 5.84455 12.5995 6.03914 12.5955 6.24033C12.5909 6.38875 12.5425 6.53249 12.4564 6.6535C12.3704 6.7745 12.2505 6.86737 12.1118 6.92045C11.9731 6.97352 11.8218 6.98443 11.677 6.9518C11.5321 6.91918 11.4001 6.84447 11.2976 6.73707C11.195 6.62966 11.1265 6.49435 11.1006 6.34813C11.0747 6.20191 11.0926 6.0513 11.1521 5.91522C11.2115 5.77914 11.3098 5.66366 11.4347 5.58329C11.5595 5.50291 11.7054 5.46122 11.8538 5.46346ZM8.74091 5.56428C9.05934 5.56353 9.3708 5.65749 9.63568 5.83422C9.90057 6.01095 10.1069 6.26247 10.2285 6.55678C10.35 6.85109 10.3813 7.17491 10.3183 7.48705C10.2554 7.79919 10.101 8.08555 9.87483 8.30972C9.64868 8.53389 9.36097 8.68573 9.04828 8.74594C8.7356 8.80616 8.41207 8.77202 8.11884 8.64787C7.82561 8.52372 7.57593 8.31517 7.40154 8.04874C7.22715 7.78231 7.13594 7.47003 7.13951 7.15162C7.13929 6.94192 7.18067 6.73426 7.26124 6.54066C7.34182 6.34706 7.45999 6.17136 7.60893 6.02373C7.75786 5.87611 7.9346 5.75949 8.1289 5.68062C8.32321 5.60176 8.53122 5.56222 8.74091 5.56428ZM6.38062 8.6272C6.57736 8.6276 6.76598 8.70567 6.90546 8.84442C7.04494 8.98317 7.124 9.17138 7.12544 9.36811C7.1273 9.51712 7.08474 9.66331 7.00319 9.78804C6.92165 9.91278 6.8048 10.0104 6.66756 10.0685C6.53031 10.1265 6.37888 10.1424 6.23258 10.1141C6.08627 10.0858 5.95172 10.0145 5.84607 9.9094C5.74041 9.8043 5.66845 9.67013 5.63935 9.52397C5.61026 9.37782 5.62534 9.22631 5.68268 9.08876C5.74003 8.95121 5.83703 8.83385 5.96133 8.75165C6.08563 8.66945 6.2316 8.62612 6.38062 8.6272ZM0.87925 18.0059C0.877239 17.6862 0.970267 17.3732 1.14652 17.1066C1.32277 16.84 1.57429 16.6317 1.86914 16.5084C2.16399 16.385 2.48885 16.352 2.80248 16.4136C3.1161 16.4753 3.40433 16.6287 3.63056 16.8545C3.85678 17.0803 4.0108 17.3682 4.07305 17.6817C4.13529 17.9952 4.10295 18.3202 3.98014 18.6152C3.85733 18.9103 3.64959 19.1623 3.3833 19.339C3.11701 19.5158 2.80418 19.6094 2.48456 19.608C2.06011 19.6056 1.65368 19.4361 1.35325 19.1363C1.05281 18.8364 0.88253 18.4303 0.87925 18.0059ZM2.46503 14.839C2.4672 14.6427 2.5455 14.4549 2.68343 14.3153C2.82136 14.1756 3.00813 14.0949 3.20438 14.0903C3.4009 14.0955 3.58842 14.1738 3.73022 14.31C3.87203 14.4462 3.95792 14.6303 3.97108 14.8265C3.98202 15.2282 3.62251 15.5869 3.2075 15.5901C3.01091 15.586 2.82357 15.5058 2.68504 15.3662C2.54651 15.2267 2.46762 15.0387 2.46503 14.8421V14.839ZM3.24658 20.4076C3.43855 20.4136 3.62077 20.4936 3.75519 20.6308C3.88961 20.7679 3.96583 20.9518 3.96796 21.1438C3.96467 21.3459 3.88201 21.5387 3.73783 21.6804C3.59364 21.8221 3.3995 21.9014 3.19734 21.9011C3.09927 21.8979 3.0028 21.8754 2.91344 21.8349C2.82407 21.7943 2.74356 21.7366 2.6765 21.665C2.60944 21.5934 2.55715 21.5092 2.52261 21.4174C2.48807 21.3256 2.47195 21.2278 2.47519 21.1297C2.47842 21.0317 2.50094 20.9352 2.54145 20.8458C2.58197 20.7565 2.63969 20.676 2.71132 20.6089C2.78295 20.5418 2.86709 20.4895 2.95893 20.455C3.05077 20.4205 3.14851 20.4043 3.24658 20.4076ZM4.1485 25.8558C3.72212 25.8558 3.3132 25.6864 3.01171 25.3849C2.71021 25.0834 2.54084 24.6745 2.54084 24.2481C2.54084 23.8218 2.71021 23.4128 3.01171 23.1114C3.3132 22.8099 3.72212 22.6405 4.1485 22.6405C4.35962 22.6405 4.56867 22.6821 4.76372 22.7629C4.95877 22.8437 5.136 22.9621 5.28528 23.1114C5.43457 23.2606 5.55299 23.4379 5.63378 23.6329C5.71457 23.828 5.75616 24.037 5.75616 24.2481C5.75616 24.4593 5.71457 24.6683 5.63378 24.8634C5.55299 25.0584 5.43457 25.2356 5.28528 25.3849C5.136 25.5342 4.95877 25.6526 4.76372 25.7334C4.56867 25.8142 4.35962 25.8558 4.1485 25.8558ZM6.38374 27.3712C6.23342 27.3764 6.08499 27.3365 5.95753 27.2566C5.83007 27.1767 5.72939 27.0606 5.66845 26.9231C5.6075 26.7856 5.58906 26.633 5.6155 26.4849C5.64194 26.3368 5.71205 26.2 5.81683 26.0921C5.9216 25.9842 6.05625 25.9101 6.20347 25.8793C6.35069 25.8485 6.50377 25.8624 6.64302 25.9192C6.78228 25.9761 6.90135 26.0733 6.98495 26.1983C7.06855 26.3233 7.11284 26.4705 7.11215 26.6209C7.11412 26.7181 7.09688 26.8148 7.06143 26.9053C7.02598 26.9958 6.973 27.0784 6.90555 27.1484C6.83809 27.2184 6.75748 27.2744 6.66834 27.3132C6.5792 27.3519 6.48328 27.3727 6.38609 27.3744L6.38374 27.3712ZM8.75342 30.4404C8.53906 30.4448 8.32598 30.4063 8.12668 30.3273C7.92738 30.2482 7.74588 30.1301 7.59283 29.98C7.43979 29.8298 7.31827 29.6506 7.23542 29.4529C7.15257 29.2551 7.11006 29.0428 7.11037 28.8284C7.11068 28.614 7.15382 28.4018 7.23724 28.2043C7.32067 28.0068 7.4427 27.8279 7.59619 27.6782C7.74967 27.5285 7.93151 27.411 8.13104 27.3325C8.33057 27.254 8.54376 27.2162 8.75811 27.2212C9.17886 27.231 9.57903 27.4053 9.8729 27.7066C10.1668 28.0078 10.331 28.4122 10.3304 28.8331C10.3298 29.254 10.1644 29.6579 9.86962 29.9583C9.57487 30.2587 9.1742 30.4318 8.75342 30.4404ZM11.864 30.5342C11.6625 30.5367 11.468 30.4597 11.3229 30.3198C11.1778 30.18 11.0936 29.9885 11.0887 29.787C11.0926 29.5912 11.1727 29.4046 11.3118 29.2668C11.451 29.129 11.6383 29.0508 11.8342 29.0488C12.03 29.0468 12.2189 29.1211 12.3609 29.256C12.5029 29.3908 12.5868 29.5757 12.5948 29.7714C12.5938 29.9683 12.5171 30.1573 12.3806 30.2993C12.2442 30.4413 12.0584 30.5254 11.8617 30.5342H11.864ZM14.9988 32.1207C14.6802 32.1201 14.3689 32.0251 14.1042 31.8477C13.8396 31.6703 13.6334 31.4185 13.5117 31.124C13.3901 30.8295 13.3584 30.5056 13.4207 30.1931C13.4831 29.8806 13.6366 29.5936 13.8619 29.3683C14.0872 29.143 14.3742 28.9895 14.6866 28.9272C14.9991 28.8649 15.323 28.8965 15.6175 29.0182C15.912 29.1398 16.1639 29.346 16.3413 29.6107C16.5187 29.8754 16.6137 30.1866 16.6143 30.5053C16.6142 30.7176 16.5723 30.9278 16.4909 31.1239C16.4095 31.32 16.2903 31.4982 16.1401 31.6482C15.9898 31.7982 15.8115 31.9172 15.6153 31.9982C15.4191 32.0793 15.2088 32.121 14.9965 32.1207H14.9988ZM18.1704 30.5358C17.9689 30.5358 17.7755 30.4562 17.6324 30.3144C17.4892 30.1725 17.4079 29.9799 17.406 29.7784C17.4091 29.5818 17.4887 29.3942 17.6279 29.2554C17.7671 29.1166 17.955 29.0376 18.1516 29.0352C18.3506 29.0327 18.5424 29.1093 18.6849 29.2483C18.8274 29.3872 18.9088 29.5771 18.9113 29.7761C18.9138 29.9751 18.8371 30.1669 18.6982 30.3094C18.5592 30.4518 18.3694 30.5333 18.1704 30.5358ZM22.1641 30.163C21.8982 30.3385 21.5867 30.432 21.2681 30.432C20.9495 30.432 20.6379 30.3385 20.372 30.163C20.1036 29.9919 19.8936 29.7434 19.7696 29.4503C19.6457 29.1572 19.6137 28.8334 19.678 28.5217C19.6999 28.417 19.7351 28.3146 19.7562 28.2091C19.7984 27.9551 19.678 27.7401 19.4435 27.6893C19.2091 27.6385 18.9988 27.7292 18.9347 27.9644C18.8628 28.2278 18.7597 28.2685 18.4955 28.1989C17.9109 28.0504 17.3959 28.2341 16.9785 28.6631C16.8667 28.7788 16.8175 28.7929 16.6886 28.678C15.6882 27.7839 14.315 27.7847 13.3193 28.678C13.195 28.7898 13.1465 28.7874 13.0309 28.6678C12.5713 28.1934 12.0148 28.0379 11.374 28.2216C11.2255 28.2646 11.1747 28.2474 11.1293 28.095C10.7347 26.7835 9.34818 26.0832 8.15944 26.4154C8.03204 26.4506 8.00313 26.4154 7.9703 26.2864C7.81399 25.6206 7.3982 25.1923 6.72763 25.036C6.58226 25.0016 6.57132 24.9578 6.59633 24.8218C6.85893 23.4588 6.21727 22.3357 4.91208 21.8753C4.77374 21.8269 4.72528 21.7917 4.77374 21.6354C4.96835 20.9984 4.8136 20.4365 4.34232 19.9769C4.20242 19.841 4.23212 19.7894 4.34232 19.6643C5.21454 18.6921 5.2075 17.297 4.32669 16.3146C4.22118 16.1966 4.20086 16.1481 4.32669 16.0254C4.80188 15.5682 4.96522 15.0094 4.77374 14.3716C4.72059 14.1942 4.77374 14.1606 4.93005 14.1176C5.19267 14.0411 5.43848 13.9157 5.65455 13.7479C5.87886 13.576 5.932 13.3408 5.79914 13.1336C5.66628 12.9265 5.39742 12.8656 5.15827 13.0289C4.70262 13.3415 4.21493 13.44 3.6866 13.2782C2.92067 13.0438 2.46581 12.288 2.58539 11.4689C2.69558 10.7171 3.38179 10.1403 4.17038 10.1403C4.54973 10.1365 4.91797 10.2683 5.20882 10.5119C5.49967 10.7554 5.69404 11.0948 5.75694 11.4689C5.77179 11.5471 5.78195 11.6252 5.80383 11.6979C5.87026 11.9246 6.0297 12.0442 6.26104 12.0223C6.50801 11.9988 6.64166 11.8394 6.65729 11.5924C6.67448 11.3243 6.91364 10.9414 7.15045 10.8109C7.35899 10.7022 7.54023 10.5477 7.68059 10.359C7.82094 10.1704 7.91678 9.95236 7.96092 9.72137C7.9914 9.57913 8.02735 9.55647 8.16882 9.58304C9.5381 9.84721 10.6698 9.20711 11.12 7.90895C11.1755 7.75264 11.2224 7.72216 11.3834 7.76905C12.0211 7.95506 12.5791 7.79406 13.0379 7.31887C13.1458 7.20633 13.1942 7.20789 13.3075 7.30871C14.3361 8.2161 15.6639 8.21376 16.6979 7.30246C16.8152 7.1993 16.8613 7.21024 16.966 7.31809C17.424 7.79406 17.982 7.95584 18.6198 7.77374C18.7862 7.72606 18.8269 7.75811 18.8816 7.9152C19.3208 9.19148 20.5033 9.86909 21.8085 9.59086C21.9883 9.55256 22.0063 9.60102 22.043 9.75342C22.211 10.3912 22.6229 10.8038 23.2653 10.9578C23.4295 10.9977 23.4326 11.0469 23.4029 11.1923C23.134 12.5107 23.8007 13.6753 25.0809 14.1192C25.2372 14.1723 25.2747 14.2114 25.2255 14.3787C25.0371 15.0164 25.2013 15.5744 25.6725 16.0348C25.7773 16.1379 25.796 16.1841 25.6897 16.3044C24.78 17.3361 24.78 18.6725 25.6897 19.6948C25.7874 19.8042 25.7991 19.8511 25.6835 19.9629C25.2005 20.4271 25.0301 20.9914 25.2325 21.6409C25.2833 21.8042 25.2224 21.8316 25.0887 21.8753C24.0586 22.2333 23.4818 22.9617 23.3466 24.0426C23.3187 24.3048 23.3404 24.57 23.4107 24.8241C23.4451 24.9578 23.4263 25.0008 23.2794 25.0352C22.6221 25.1915 22.204 25.6041 22.0399 26.2567C22.0023 26.4084 21.975 26.4443 21.8163 26.4029C21.4367 26.3026 21.0373 26.3047 20.6589 26.4091C20.3462 26.4935 20.2102 26.6905 20.2681 26.9562C20.3228 27.1985 20.5393 27.3283 20.8386 27.2587C21.0501 27.2052 21.2701 27.195 21.4856 27.2286C21.7011 27.2622 21.9076 27.339 22.0927 27.4543C22.2779 27.5696 22.4378 27.7211 22.563 27.8996C22.6882 28.0782 22.7761 28.2802 22.8214 28.4936C22.8842 28.8058 22.8554 29.1295 22.7384 29.4258C22.6213 29.722 22.4211 29.978 22.1618 30.163H22.1641ZM23.6288 27.3751C23.4312 27.3758 23.2412 27.2987 23.1 27.1605C22.9587 27.0223 22.8775 26.8341 22.8738 26.6366C22.8703 26.5359 22.8871 26.4355 22.9231 26.3414C22.9592 26.2473 23.0138 26.1614 23.0837 26.0888C23.1536 26.0163 23.2374 25.9585 23.3301 25.9189C23.4228 25.8794 23.5225 25.8589 23.6232 25.8586C23.724 25.8583 23.8238 25.8783 23.9167 25.9174C24.0096 25.9565 24.0936 26.0138 24.1639 26.086C24.2342 26.1582 24.2893 26.2438 24.3258 26.3377C24.3624 26.4316 24.3797 26.5319 24.3767 26.6327C24.3755 26.8306 24.2958 27.0199 24.1551 27.1591C24.0144 27.2983 23.8243 27.376 23.6264 27.3751H23.6288ZM25.8382 25.8597C25.5193 25.863 25.2066 25.7714 24.9397 25.5968C24.6728 25.4221 24.4638 25.1722 24.3392 24.8786C24.2145 24.585 24.1798 24.261 24.2395 23.9477C24.2991 23.6344 24.4505 23.3459 24.6743 23.1186C24.8981 22.8914 25.1843 22.7357 25.4967 22.6714C25.8091 22.607 26.1336 22.6368 26.429 22.757C26.7244 22.8772 26.9775 23.0825 27.1561 23.3467C27.3348 23.6109 27.431 23.9222 27.4326 24.2411C27.437 24.453 27.3988 24.6637 27.3204 24.8606C27.242 25.0575 27.1249 25.2367 26.9761 25.3876C26.8272 25.5385 26.6496 25.6581 26.4538 25.7391C26.2579 25.8202 26.0478 25.8612 25.8359 25.8597H25.8382ZM26.7839 21.9136C26.6836 21.9159 26.584 21.8979 26.4908 21.8609C26.3976 21.8239 26.3128 21.7685 26.2414 21.698C26.17 21.6276 26.1135 21.5435 26.0752 21.4508C26.037 21.3582 26.0177 21.2587 26.0186 21.1584C26.0195 21.0582 26.0405 20.9591 26.0804 20.8671C26.1203 20.7751 26.1783 20.6921 26.2509 20.6229C26.3236 20.5537 26.4093 20.4999 26.5032 20.4645C26.597 20.4291 26.697 20.413 26.7972 20.417C26.9943 20.4192 27.1826 20.4994 27.3208 20.64C27.459 20.7805 27.536 20.9701 27.535 21.1673C27.5285 21.3639 27.4471 21.5507 27.3075 21.6895C27.1679 21.8282 26.9806 21.9084 26.7839 21.9136ZM27.4936 19.6073C27.2825 19.6081 27.0734 19.5673 26.8782 19.4873C26.6829 19.4074 26.5053 19.2897 26.3555 19.141C26.053 18.8409 25.8821 18.4328 25.8804 18.0066C25.8788 17.5805 26.0465 17.1711 26.3466 16.8686C26.6468 16.5661 27.0549 16.3952 27.481 16.3935C27.9096 16.3908 28.3221 16.5568 28.6292 16.8557C28.9364 17.1547 29.1135 17.5625 29.1223 17.991C29.1262 18.857 28.3759 19.6026 27.4936 19.6065V19.6073Z" fill="#695F56"/>
</g>
<defs>
<clipPath id="clip0_3_41">
<rect width="30" height="30" fill="white" transform="translate(0 3)"/>
</clipPath>
</defs>
</svg>
