<svg width="30" height="30" viewBox="0 0 30 30" fill="none" xmlns="http://www.w3.org/2000/svg">
<circle opacity="0.2" cx="15" cy="15" r="15" fill="white"/>
<g clip-path="url(#clip0_804_98)">
<path d="M22.215 10.0228H18.5796C18.4685 8.79007 18.1252 7.67819 17.6321 6.82736C16.9747 5.70097 16.0513 5 15.0023 5C13.9532 5 13.0251 5.69614 12.3724 6.82736C11.8793 7.68302 11.5361 8.79007 11.4249 10.0228H7.7847C7.35445 10.0228 6.97255 10.3805 7.00155 10.8108L7.73636 20.9918C7.81371 22.094 8.50018 22.998 9.79576 22.998H20.2088C21.3739 22.998 22.1763 22.268 22.2682 20.9918L22.9982 10.806C23.032 10.3757 22.6453 10.0228 22.215 10.0228ZM13.1556 7.28661C13.6487 6.43578 14.3013 5.90884 15.0023 5.90884C15.7032 5.90884 16.3559 6.43578 16.8393 7.28178C17.2599 8.00692 17.5548 8.95444 17.6611 10.0228H12.3338C12.4449 8.95927 12.735 8.00692 13.1556 7.28661ZM17.7288 18.826C17.6666 19.0442 17.5738 19.2526 17.4533 19.4448C17.4242 19.4883 17.4049 19.5222 17.3904 19.5463C17.1789 19.864 16.8879 20.1207 16.5463 20.2908C16.1912 20.4603 15.8019 20.5463 15.4084 20.5422C14.6204 20.5422 13.7019 20.2521 12.735 19.6624C12.6053 19.5899 12.4795 19.5109 12.3579 19.4255C12.3166 19.3988 12.281 19.364 12.2533 19.3234C12.2256 19.2827 12.2063 19.2369 12.1966 19.1886C12.1868 19.1404 12.1868 19.0907 12.1966 19.0424C12.2064 18.9942 12.2257 18.9484 12.2535 18.9077C12.2812 18.8671 12.3168 18.8324 12.3582 18.8057C12.3996 18.779 12.4458 18.7609 12.4943 18.7524C12.5428 18.7439 12.5925 18.7451 12.6405 18.7561C12.6884 18.7671 12.7337 18.7876 12.7737 18.8164C12.88 18.8889 12.9912 18.9614 13.1121 19.0339C13.9629 19.5512 14.7461 19.8074 15.3987 19.8074C15.9885 19.8074 16.4671 19.585 16.7716 19.1354C16.791 19.1016 16.8103 19.0822 16.8151 19.0677C16.8984 18.9318 16.9634 18.7855 17.0085 18.6327C17.0972 18.3397 17.0801 18.0248 16.9602 17.7431C16.8296 17.4483 16.5782 17.163 16.1867 16.9262C16.0461 16.8408 15.8992 16.7663 15.7472 16.7033C15.5724 16.6305 15.393 16.5693 15.2102 16.5201C14.2143 16.2397 13.4795 15.8433 13.0831 15.3115C12.648 14.7266 12.6141 14.0208 13.0782 13.1651C13.3876 12.5995 14.0209 12.2466 14.8234 12.1837C15.5147 12.1306 16.3462 12.2949 17.1922 12.7252C17.277 12.7714 17.3404 12.8489 17.3687 12.9412C17.3971 13.0335 17.3883 13.1333 17.3441 13.2192C17.2999 13.305 17.2238 13.3702 17.1322 13.4007C17.0406 13.4313 16.9407 13.4248 16.8538 13.3826C16.1335 13.0152 15.447 12.875 14.8766 12.9185C14.3303 12.9621 13.9146 13.1748 13.7309 13.5132C13.4215 14.0788 13.4263 14.5235 13.6777 14.8619C13.9677 15.2535 14.572 15.5581 15.4132 15.7949C15.8197 15.9059 16.2099 16.0701 16.5734 16.2832C16.8181 16.428 17.0408 16.607 17.2347 16.815C17.4038 16.9981 17.5414 17.208 17.6418 17.4362C17.8323 17.8751 17.8631 18.3668 17.7288 18.826Z" fill="white"/>
</g>
<defs>
<clipPath id="clip0_804_98">
<rect width="16" height="17.998" fill="white" transform="translate(7 5)"/>
</clipPath>
</defs>
</svg>
