<svg xmlns="http://www.w3.org/2000/svg" viewBox="0 0 339.37 383.85"><defs><style>.cls-1{fill:#3f3130;}</style></defs><g id="Layer_2" data-name="Layer 2"><g id="Layer_1-2" data-name="Layer 1"><path class="cls-1" d="M317.34,201.39a33.86,33.86,0,0,0,22-32.24,35.54,35.54,0,0,0-22.65-32.82c-5.59-2.24-7.2-8.18-3.59-12.84,6.59-8.51,9.43-17.95,7.48-28.78-3.25-18-21.59-31-39.68-27.79-7.05,1.25-10.63-2.39-9.53-9.4a33.54,33.54,0,0,0-8.95-29.39c-12.89-13.74-32.49-14.67-47.8-2.71-4.16,3.24-10.42,1.72-12.33-3.07C197.21,9.5,188.45,1.3,174.19,0h-10.5c-3.52.69-7,1.33-10.25,3.1a34.26,34.26,0,0,0-16,18.17c-2.46,6.2-8.12,7.75-13.3,3.7-7-5.43-14.87-8.43-23.67-7.83-21.57,1.46-36,20.19-32.34,41.46,1,5.54-3.36,9.72-8.82,8.56a32.34,32.34,0,0,0-22.51,3.32c-19.7,10.6-24.66,34.84-10.93,52.58C30,128.3,28.5,134,22.42,136.41a33.79,33.79,0,0,0-11.88,7.68c-18.17,18.61-12,48,12,57.67,5.8,2.34,7.28,8.12,3.45,13.15-6.69,8.8-9.65,18.57-7,29.55a34.68,34.68,0,0,0,39.44,26.69c6.86-1.25,10.77,2.47,9.53,9.33-2.59,14.23,5,29.68,17.77,36.24,13.65,7,26.55,5.43,38.59-3.79,2.16-1.65,4-2.35,6.82-1.7,3.42.79,5.22,2.53,6.51,5.82a34.21,34.21,0,0,0,31.87,22.05c14.1,0,26.56-8.37,32.17-21.75.38-.93.65-1.9,1.1-2.79,1.21-2.33,7.13-4.51,9.57-3.55,3,1.18,4,3.4,3,7.37-4.32,18.74-9.14,37.37-13.47,56.11-.95,4.14-.63,4.7,3.47,5.81a126.11,126.11,0,0,0,16.76,3.55h1.5c1.61-1.27,1.85-3.18,2.31-5,3.85-15.06,7.23-30.25,11.18-45.59,3.93,15.67,7.62,31.06,11.26,46.47.37,1.56.57,3.24,2.24,4.1h1.5a158.32,158.32,0,0,0,16.42-3.39c4.36-1.07,4.86-1.68,3.81-5.88-1.6-6.43-3-12.91-4.6-19.32-3.12-12.23-5.85-24.55-9-36.78-.6-2.35-.77-4.36,1.39-6.43,9.27-8.89,13.33-19.68,11-32.57-1-5.52,3.36-9.58,8.91-8.52,11.51,2.18,21.71-.93,30.11-8.78,13.63-12.73,14.65-32.66,2.94-47.51-1-1.24-2.52-2.29-2.18-4.16C311.74,206.56,312.61,203.18,317.34,201.39Zm-28.51-.25c-.53,2.15-1.86,2.1-3.58,2.2-25.25,1.4-39.81,26.82-28.29,49.37.7,1.37,1.45,2.31-.06,3.83s-2.39,1-3.82.24c-22.8-11.65-48,2.84-49.5,28.44-.09,1.56,0,2.83-2,3.33s-2.56-.63-3.42-1.94c-13.92-21.31-43-21.34-56.86-.06-.83,1.28-1.33,2.55-3.38,2-1.88-.53-2-1.64-2.1-3.27-1.57-25.86-26.45-40-49.77-28.27-1.47.74-2.28.72-3.5-.44s-1-2.12-.34-3.52c11.64-23.36-2.57-48.24-28.4-49.7-1.7-.1-2.72-.33-3.22-2.17-.56-2.07.83-2.52,2.07-3.34,10.23-6.74,15.47-16.27,15.93-28.65-.61-12.11-5.64-21.93-15.91-28.84-1.41-1-2.63-1.55-2-3.71s2.11-1.65,3.51-1.7C78.51,134,93.67,108.39,83,86.41c-.68-1.39-2.63-2.65-.51-4.84s3.35-.43,4.82.29c22,10.92,46.93-3.75,48.51-28.59.1-1.63-.13-3.07,2.08-3.68s2.72,1,3.57,2.27c13.56,20.81,42.89,20.81,56.51,0,.86-1.32,1.3-2.89,3.59-2.31s2,2.08,2.06,3.7c1.5,25.08,26.81,39.63,49.17,28.28,1.42-.73,2.5-1.69,4.15,0,1.49,1.55.74,2.47,0,3.84-11.54,22.56,3,47.89,28.29,49.35,1.73.1,3.06.07,3.58,2.22s-.87,2.51-2.1,3.33c-21.12,13.94-21.11,43.66,0,57.5C288,198.62,289.35,199.05,288.83,201.14Z"/></g></g></svg>