<svg width="38" height="38" viewBox="0 0 38 38" fill="none" xmlns="http://www.w3.org/2000/svg">
<path d="M14.7298 9.11257C16.6297 5.70419 17.5798 4 19.0001 4C20.4204 4 21.3703 5.70419 23.2702 9.11257L23.7618 9.99436C24.3017 10.9629 24.5717 11.4472 24.9926 11.7667C25.4135 12.0862 25.9378 12.2049 26.9863 12.4421L27.9407 12.658C31.6303 13.4928 33.4751 13.9102 33.9138 15.3216C34.3528 16.733 33.0952 18.2037 30.5799 21.1448L29.9291 21.9059C29.2143 22.7416 28.857 23.1595 28.6963 23.6766C28.5354 24.1936 28.5894 24.7512 28.6976 25.8663L28.7958 26.8816C29.1763 30.806 29.3664 32.7682 28.2172 33.6404C27.0682 34.5127 25.341 33.7173 21.8865 32.1267L20.9928 31.7153C20.0111 31.2633 19.5204 31.0373 19.0001 31.0373C18.4798 31.0373 17.9889 31.2633 17.0073 31.7153L16.1135 32.1267C12.659 33.7173 10.9318 34.5127 9.78274 33.6404C8.63368 32.7682 8.82383 30.806 9.20409 26.8816L9.30248 25.8663C9.41055 24.7512 9.46457 24.1936 9.30381 23.6766C9.14303 23.1595 8.78565 22.7416 8.07088 21.9059L7.42016 21.1448C4.90488 18.2037 3.64725 16.733 4.08613 15.3216C4.52503 13.9102 6.36979 13.4928 10.0593 12.658L11.0138 12.4421C12.0622 12.2049 12.5864 12.0862 13.0074 11.7667C13.4283 11.4472 13.6983 10.9629 14.2381 9.99436L14.7298 9.11257Z" fill="#F2C94C"/>
</svg>
