<svg width="15" height="15" viewBox="0 0 15 15" fill="none" xmlns="http://www.w3.org/2000/svg">
<path d="M7.5 1.25C6.26387 1.25 5.0555 1.61656 4.02769 2.30331C2.99988 2.99007 2.1988 3.96619 1.72576 5.10823C1.25271 6.25027 1.12894 7.50693 1.37009 8.71931C1.61125 9.93169 2.20651 11.0453 3.08059 11.9194C3.95466 12.7935 5.06831 13.3887 6.28069 13.6299C7.49307 13.8711 8.74974 13.7473 9.89177 13.2742C11.0338 12.8012 12.0099 12.0001 12.6967 10.9723C13.3834 9.94451 13.75 8.73613 13.75 7.5C13.75 6.67924 13.5883 5.86651 13.2742 5.10823C12.9602 4.34994 12.4998 3.66095 11.9194 3.08058C11.3391 2.50022 10.6501 2.03984 9.89177 1.72575C9.13349 1.41166 8.32076 1.25 7.5 1.25ZM11.0475 6.39812L7.2975 9.83562C7.17877 9.94449 7.0226 10.0033 6.86155 9.99982C6.7005 9.99633 6.54702 9.93079 6.43313 9.81687L4.55813 7.94187C4.49843 7.88422 4.45082 7.81525 4.41806 7.739C4.38531 7.66275 4.36807 7.58074 4.36735 7.49775C4.36662 7.41476 4.38244 7.33246 4.41386 7.25565C4.44529 7.17884 4.4917 7.10906 4.55038 7.05038C4.60906 6.99169 4.67885 6.94529 4.75566 6.91386C4.83247 6.88244 4.91477 6.86662 4.99775 6.86734C5.08074 6.86806 5.16275 6.88531 5.23901 6.91806C5.31526 6.95082 5.38422 6.99843 5.44188 7.05812L6.89375 8.51L10.2025 5.47687C10.3247 5.36482 10.4863 5.30589 10.652 5.31304C10.8176 5.32019 10.9736 5.39283 11.0856 5.515C11.1977 5.63717 11.2566 5.79884 11.2495 5.96446C11.2423 6.13008 11.1697 6.28607 11.0475 6.39812Z" fill="#EE4D2D"/>
</svg>
