<?xml version="1.0" encoding="utf-8"?>
<!-- Generator: Adobe Illustrator 27.5.0, SVG Export Plug-In . SVG Version: 6.00 Build 0)  -->
<svg version="1.1" id="Layer_1" xmlns="http://www.w3.org/2000/svg" xmlns:xlink="http://www.w3.org/1999/xlink" x="0px" y="0px"
	 viewBox="0 0 800 800" style="enable-background:new 0 0 800 800;" xml:space="preserve">
<style type="text/css">
	.st0{fill:none;stroke:#815F42;stroke-width:66.6667;stroke-linecap:round;stroke-linejoin:round;stroke-miterlimit:133.3333;}
</style>
<path class="st0" d="M700,400c0,165.7-134.3,300-300,300 M700,400c0-165.7-134.3-300-300-300 M700,400c0,55.2-134.3,100-300,100
	c-165.7,0-300-44.8-300-100 M700,400c0-55.2-134.3-100-300-100c-165.7,0-300,44.8-300,100 M400,700c-165.7,0-300-134.3-300-300
	 M400,700c-55.2,0-100-134.3-100-300c0-165.7,44.8-300,100-300 M400,700c55.2,0,100-134.3,100-300c0-165.7-44.8-300-100-300
	 M100,400c0-165.7,134.3-300,300-300"/>
</svg>
