<svg width="60" height="60" viewBox="0 0 60 60" fill="none" xmlns="http://www.w3.org/2000/svg">
<path d="M30 55C43.8071 55 55 43.8071 55 30C55 16.1929 43.8071 5 30 5C16.1929 5 5 16.1929 5 30C5 43.8071 16.1929 55 30 55Z" fill="#0068FF"/>
<path opacity="0.12" fill-rule="evenodd" clip-rule="evenodd" d="M54.0625 30.625L15.1562 46.1719L21.9531 53.4375C24.375 54.2188 26.9531 54.6875 29.6094 54.6875C43.0469 54.6875 53.9062 43.9844 54.0625 30.625Z" fill="url(#paint0_linear_742_280)"/>
<path fill-rule="evenodd" clip-rule="evenodd" d="M47.4218 46.875C51.5624 42.5 54.3749 36.7188 54.3749 30.2344C54.3749 16.6406 43.3593 5.625 29.7655 5.625C24.3749 5.625 19.6874 7.65625 15.6249 10.5469C10.9374 19.2969 11.1718 32.1875 16.953 39.9219C16.953 39.9219 16.953 39.9219 16.953 40C18.0468 41.5625 16.953 44.375 15.3905 45.9375C15.1562 46.1719 15.2343 46.3281 15.6249 46.4063C17.8905 46.6406 20.7812 46.0156 22.8124 45C29.7655 48.8281 39.3749 49.375 47.4218 46.875Z" fill="white"/>
<path d="M27.9688 23.75H20V25.4688H25.5469L20.0781 32.1875C19.9219 32.4219 19.7656 32.6562 19.7656 33.2031V33.6719H27.2656C27.6563 33.6719 27.9688 33.3594 27.9688 32.9687V32.0312H22.1875L27.2656 25.625C27.3438 25.5469 27.5 25.3906 27.5781 25.3125V25.2344C27.8906 24.7656 27.9688 24.4531 27.9688 23.9844V23.75Z" fill="#0068FF"/>
<path d="M38.125 33.5937H39.2187V23.75H37.5V33.0469C37.5781 33.3594 37.8125 33.5937 38.125 33.5937Z" fill="#0068FF"/>
<path d="M32.2656 25.9375C30.1562 25.9375 28.3594 27.6563 28.3594 29.8438C28.3594 32.0312 30.0781 33.75 32.2656 33.75C34.4531 33.75 36.1719 32.0312 36.1719 29.8438C36.1719 27.6563 34.4531 25.9375 32.2656 25.9375ZM32.2656 32.1094C31.0156 32.1094 30 31.0938 30 29.8438C30 28.5937 31.0156 27.5781 32.2656 27.5781C33.5156 27.5781 34.5313 28.5937 34.5313 29.8438C34.5313 31.0938 33.5938 32.1094 32.2656 32.1094Z" fill="#0068FF"/>
<path d="M44.2969 25.8594C42.1094 25.8594 40.3906 27.5781 40.3906 29.7656C40.3906 31.9531 42.1094 33.6719 44.2969 33.6719C46.4844 33.6719 48.2031 31.9531 48.2031 29.7656C48.2031 27.5781 46.4063 25.8594 44.2969 25.8594ZM44.2969 32.1094C43.0469 32.1094 42.0313 31.0937 42.0313 29.8437C42.0313 28.5937 43.0469 27.5781 44.2969 27.5781C45.5469 27.5781 46.5625 28.5937 46.5625 29.8437C46.5625 31.0156 45.5469 32.1094 44.2969 32.1094Z" fill="#0068FF"/>
<path d="M35.2344 33.5937H36.1719V26.0938H34.6094V32.8906C34.6094 33.2813 34.9219 33.5937 35.2344 33.5937Z" fill="#0068FF"/>
<defs>
<linearGradient id="paint0_linear_742_280" x1="34.3971" y1="38.0252" x2="37.6809" y2="43.3157" gradientUnits="userSpaceOnUse">
<stop/>
<stop offset="0.9379" stop-opacity="0.062076"/>
<stop offset="1" stop-opacity="0"/>
</linearGradient>
</defs>
</svg>
